<?xml version="1.0" encoding="utf-8"?>
<!-- Generator: Adobe Illustrator 23.0.3, SVG Export Plug-In . SVG Version: 6.00 Build 0)  -->
<svg version="1.1" xmlns="http://www.w3.org/2000/svg" xmlns:xlink="http://www.w3.org/1999/xlink" x="0px" y="0px"
	 viewBox="0 0 500 500" style="enable-background:new 0 0 500 500;" xml:space="preserve">
<style type="text/css">
	.st0{fill:#DEAC2F;}
	.st1{fill:#350FF2;}
	.st2{fill:#071859;}
	.st3{fill:#263F7A;}
	.st4{fill:#181F70;}
	.st5{fill:none;stroke:#76AAD2;stroke-miterlimit:10;}
	.st6{fill:#76AAD2;}
	.st7{fill:none;stroke:#76AAD2;stroke-width:0.7945;stroke-miterlimit:10;}
	.st8{fill:none;}
	.st9{fill:#17356D;}
	.st10{fill:#1F265D;}
	.st11{fill:#0C0959;}
	.st12{fill:#001321;}
</style>
<g id="Layer_1">
	<circle class="st0" cx="250" cy="259.41" r="216.54"/>
	<circle class="st1" cx="250" cy="274.83" r="216.54"/>
	<g>
		<polygon class="st2" points="401.63,240.59 354.05,274.83 354.05,319.78 303.24,319.78 303.24,401.08 401.63,401.08 		"/>
		<rect x="180.47" y="254.22" class="st2" width="49.49" height="143.26"/>
		<polygon class="st2" points="219.06,221.03 191.94,232.36 191.94,254.22 219.06,254.22 		"/>
		<rect x="176.77" y="265.97" class="st2" width="57.48" height="11.49"/>
		<polygon class="st2" points="263.59,410.19 229.95,410.19 229.95,319.54 263.59,289.72 		"/>
		<polygon class="st2" points="167.21,397.48 124.04,397.48 124.04,254.22 164.64,292.81 		"/>
		<polygon class="st2" points="83.75,397.48 124.04,397.48 124.04,318.23 83.75,353.64 		"/>
		<polygon class="st2" points="104.37,345.72 97.66,345.72 97.66,312.67 104.37,308.39 		"/>
		<polygon class="st2" points="385.38,279.07 361.56,279.07 361.56,245.36 383.67,269.26 		"/>
		<g>
			<rect x="146.65" y="321.46" class="st3" width="33.34" height="87"/>
			<g>
				<path class="st0" d="M152.2,397.48L152.2,397.48c-0.88,0-1.59-0.71-1.59-1.59v-67.24c0-0.88,0.71-1.59,1.59-1.59h0
					c0.88,0,1.59,0.71,1.59,1.59v67.24C153.79,396.77,153.08,397.48,152.2,397.48z"/>
				<path class="st0" d="M157.97,397.48L157.97,397.48c-0.88,0-1.59-0.71-1.59-1.59v-67.24c0-0.88,0.71-1.59,1.59-1.59h0
					c0.88,0,1.59,0.71,1.59,1.59v67.24C159.56,396.77,158.85,397.48,157.97,397.48z"/>
				<path class="st0" d="M163.73,397.48L163.73,397.48c-0.88,0-1.59-0.71-1.59-1.59v-67.24c0-0.88,0.71-1.59,1.59-1.59l0,0
					c0.88,0,1.59,0.71,1.59,1.59v67.24C165.32,396.77,164.61,397.48,163.73,397.48z"/>
				<path class="st0" d="M169.5,397.48L169.5,397.48c-0.88,0-1.59-0.71-1.59-1.59v-67.24c0-0.88,0.71-1.59,1.59-1.59h0
					c0.88,0,1.59,0.71,1.59,1.59v67.24C171.09,396.77,170.38,397.48,169.5,397.48z"/>
				<path class="st0" d="M175.26,397.48L175.26,397.48c-0.88,0-1.59-0.71-1.59-1.59v-67.24c0-0.88,0.71-1.59,1.59-1.59h0
					c0.88,0,1.59,0.71,1.59,1.59v67.24C176.85,396.77,176.14,397.48,175.26,397.48z"/>
			</g>
			<polygon class="st3" points="160.79,315.46 151.08,319.93 151.08,321.46 160.79,321.46 			"/>
			<polygon class="st3" points="174.35,315.46 164.64,319.93 164.64,321.46 174.35,321.46 			"/>
		</g>
		<g>
			<rect x="265.46" y="271.03" class="st3" width="64.58" height="140.52"/>
			<polygon class="st2" points="292.85,261.02 274.04,268.47 274.04,271.03 292.85,271.03 			"/>
			<polygon class="st2" points="319.12,261.02 300.31,268.47 300.31,271.03 319.12,271.03 			"/>
			<g>
				<g>
					
						<rect x="273.87" y="331.99" transform="matrix(-1.836970e-16 1 -1 -1.836970e-16 614.9357 61.0262)" class="st0" width="6.17" height="11.97"/>
					
						<rect x="273.87" y="343.16" transform="matrix(-1.836970e-16 1 -1 -1.836970e-16 626.1025 72.1931)" class="st0" width="6.17" height="11.97"/>
					
						<rect x="273.87" y="354.33" transform="matrix(-1.836970e-16 1 -1 -1.836970e-16 637.2695 83.36)" class="st0" width="6.17" height="11.97"/>
					
						<rect x="273.87" y="365.49" transform="matrix(-1.836970e-16 1 -1 -1.836970e-16 648.4363 94.5269)" class="st0" width="6.17" height="11.97"/>
					
						<rect x="273.87" y="376.66" transform="matrix(-1.836970e-16 1 -1 -1.836970e-16 659.6033 105.6939)" class="st0" width="6.17" height="11.97"/>
				</g>
				<g>
					
						<rect x="288.27" y="331.99" transform="matrix(-1.836970e-16 1 -1 -1.836970e-16 629.3319 46.63)" class="st0" width="6.17" height="11.97"/>
					
						<rect x="288.27" y="343.16" transform="matrix(-1.836970e-16 1 -1 -1.836970e-16 640.4988 57.7969)" class="st0" width="6.17" height="11.97"/>
					
						<rect x="288.27" y="354.33" transform="matrix(-1.836970e-16 1 -1 -1.836970e-16 651.6657 68.9638)" class="st0" width="6.17" height="11.97"/>
					
						<rect x="288.27" y="365.49" transform="matrix(-1.836970e-16 1 -1 -1.836970e-16 662.8326 80.1307)" class="st0" width="6.17" height="11.97"/>
					
						<rect x="288.27" y="376.66" transform="matrix(-1.836970e-16 1 -1 -1.836970e-16 673.9996 91.2977)" class="st0" width="6.17" height="11.97"/>
				</g>
				<g>
					
						<rect x="302.66" y="331.99" transform="matrix(-1.836970e-16 1 -1 -1.836970e-16 643.7281 32.2337)" class="st0" width="6.17" height="11.97"/>
					
						<rect x="302.66" y="343.16" transform="matrix(-1.836970e-16 1 -1 -1.836970e-16 654.8951 43.4006)" class="st0" width="6.17" height="11.97"/>
					
						<rect x="302.66" y="354.33" transform="matrix(-1.836970e-16 1 -1 -1.836970e-16 666.062 54.5675)" class="st0" width="6.17" height="11.97"/>
					
						<rect x="302.66" y="365.49" transform="matrix(-1.836970e-16 1 -1 -1.836970e-16 677.2289 65.7344)" class="st0" width="6.17" height="11.97"/>
					
						<rect x="302.66" y="376.66" transform="matrix(-1.836970e-16 1 -1 -1.836970e-16 688.3959 76.9014)" class="st0" width="6.17" height="11.97"/>
				</g>
				<g>
					
						<rect x="317.06" y="331.99" transform="matrix(-1.836970e-16 1 -1 -1.836970e-16 658.1244 17.8375)" class="st0" width="6.17" height="11.97"/>
					
						<rect x="317.06" y="343.16" transform="matrix(-1.836970e-16 1 -1 -1.836970e-16 669.2913 29.0044)" class="st0" width="6.17" height="11.97"/>
					
						<rect x="317.06" y="354.33" transform="matrix(-1.836970e-16 1 -1 -1.836970e-16 680.4582 40.1713)" class="st0" width="6.17" height="11.97"/>
					
						<rect x="317.06" y="365.49" transform="matrix(-1.836970e-16 1 -1 -1.836970e-16 691.6251 51.3382)" class="st0" width="6.17" height="11.97"/>
					
						<rect x="317.06" y="376.66" transform="matrix(-1.836970e-16 1 -1 -1.836970e-16 702.7921 62.5052)" class="st0" width="6.17" height="11.97"/>
				</g>
			</g>
			<g>
				<g>
					<path class="st0" d="M270.97,281.64L270.97,281.64c0-1.7,1.38-3.09,3.09-3.09h5.8c1.7,0,3.09,1.38,3.09,3.09l0,0
						c0,1.7-1.38,3.09-3.09,3.09h-5.8C272.35,284.73,270.97,283.34,270.97,281.64z"/>
					<path class="st0" d="M270.97,292.81L270.97,292.81c0-1.7,1.38-3.09,3.09-3.09h5.8c1.7,0,3.09,1.38,3.09,3.09l0,0
						c0,1.7-1.38,3.09-3.09,3.09h-5.8C272.35,295.89,270.97,294.51,270.97,292.81z"/>
					<path class="st0" d="M270.97,303.97L270.97,303.97c0-1.7,1.38-3.09,3.09-3.09h5.8c1.7,0,3.09,1.38,3.09,3.09l0,0
						c0,1.7-1.38,3.09-3.09,3.09h-5.8C272.35,307.06,270.97,305.68,270.97,303.97z"/>
					<path class="st0" d="M270.97,315.14L270.97,315.14c0-1.7,1.38-3.09,3.09-3.09h5.8c1.7,0,3.09,1.38,3.09,3.09l0,0
						c0,1.7-1.38,3.09-3.09,3.09h-5.8C272.35,318.23,270.97,316.85,270.97,315.14z"/>
					<path class="st0" d="M270.97,326.31L270.97,326.31c0-1.7,1.38-3.09,3.09-3.09h5.8c1.7,0,3.09,1.38,3.09,3.09l0,0
						c0,1.7-1.38,3.09-3.09,3.09h-5.8C272.35,329.39,270.97,328.01,270.97,326.31z"/>
				</g>
				<g>
					<path class="st0" d="M285.36,281.64L285.36,281.64c0-1.7,1.38-3.09,3.09-3.09h5.8c1.7,0,3.09,1.38,3.09,3.09l0,0
						c0,1.7-1.38,3.09-3.09,3.09h-5.8C286.75,284.73,285.36,283.34,285.36,281.64z"/>
					<path class="st0" d="M285.36,292.81L285.36,292.81c0-1.7,1.38-3.09,3.09-3.09h5.8c1.7,0,3.09,1.38,3.09,3.09l0,0
						c0,1.7-1.38,3.09-3.09,3.09h-5.8C286.75,295.89,285.36,294.51,285.36,292.81z"/>
					<path class="st0" d="M285.36,303.97L285.36,303.97c0-1.7,1.38-3.09,3.09-3.09h5.8c1.7,0,3.09,1.38,3.09,3.09l0,0
						c0,1.7-1.38,3.09-3.09,3.09h-5.8C286.75,307.06,285.36,305.68,285.36,303.97z"/>
					<path class="st0" d="M285.36,315.14L285.36,315.14c0-1.7,1.38-3.09,3.09-3.09h5.8c1.7,0,3.09,1.38,3.09,3.09l0,0
						c0,1.7-1.38,3.09-3.09,3.09h-5.8C286.75,318.23,285.36,316.85,285.36,315.14z"/>
					<path class="st0" d="M285.36,326.31L285.36,326.31c0-1.7,1.38-3.09,3.09-3.09h5.8c1.7,0,3.09,1.38,3.09,3.09l0,0
						c0,1.7-1.38,3.09-3.09,3.09h-5.8C286.75,329.39,285.36,328.01,285.36,326.31z"/>
				</g>
				<g>
					<path class="st0" d="M299.76,281.64L299.76,281.64c0-1.7,1.38-3.09,3.09-3.09h5.8c1.7,0,3.09,1.38,3.09,3.09l0,0
						c0,1.7-1.38,3.09-3.09,3.09h-5.8C301.14,284.73,299.76,283.34,299.76,281.64z"/>
					<path class="st0" d="M299.76,292.81L299.76,292.81c0-1.7,1.38-3.09,3.09-3.09h5.8c1.7,0,3.09,1.38,3.09,3.09l0,0
						c0,1.7-1.38,3.09-3.09,3.09h-5.8C301.14,295.89,299.76,294.51,299.76,292.81z"/>
					<path class="st0" d="M299.76,303.97L299.76,303.97c0-1.7,1.38-3.09,3.09-3.09h5.8c1.7,0,3.09,1.38,3.09,3.09l0,0
						c0,1.7-1.38,3.09-3.09,3.09h-5.8C301.14,307.06,299.76,305.68,299.76,303.97z"/>
					<path class="st0" d="M299.76,315.14L299.76,315.14c0-1.7,1.38-3.09,3.09-3.09h5.8c1.7,0,3.09,1.38,3.09,3.09l0,0
						c0,1.7-1.38,3.09-3.09,3.09h-5.8C301.14,318.23,299.76,316.85,299.76,315.14z"/>
					<path class="st0" d="M299.76,326.31L299.76,326.31c0-1.7,1.38-3.09,3.09-3.09h5.8c1.7,0,3.09,1.38,3.09,3.09l0,0
						c0,1.7-1.38,3.09-3.09,3.09h-5.8C301.14,329.39,299.76,328.01,299.76,326.31z"/>
				</g>
				<g>
					<path class="st0" d="M314.16,281.64L314.16,281.64c0-1.7,1.38-3.09,3.09-3.09h5.8c1.7,0,3.09,1.38,3.09,3.09l0,0
						c0,1.7-1.38,3.09-3.09,3.09h-5.8C315.54,284.73,314.16,283.34,314.16,281.64z"/>
					<path class="st0" d="M314.16,292.81L314.16,292.81c0-1.7,1.38-3.09,3.09-3.09h5.8c1.7,0,3.09,1.38,3.09,3.09l0,0
						c0,1.7-1.38,3.09-3.09,3.09h-5.8C315.54,295.89,314.16,294.51,314.16,292.81z"/>
					<path class="st0" d="M314.16,303.97L314.16,303.97c0-1.7,1.38-3.09,3.09-3.09h5.8c1.7,0,3.09,1.38,3.09,3.09l0,0
						c0,1.7-1.38,3.09-3.09,3.09h-5.8C315.54,307.06,314.16,305.68,314.16,303.97z"/>
					<path class="st0" d="M314.16,315.14L314.16,315.14c0-1.7,1.38-3.09,3.09-3.09h5.8c1.7,0,3.09,1.38,3.09,3.09l0,0
						c0,1.7-1.38,3.09-3.09,3.09h-5.8C315.54,318.23,314.16,316.85,314.16,315.14z"/>
					<path class="st0" d="M314.16,326.31L314.16,326.31c0-1.7,1.38-3.09,3.09-3.09h5.8c1.7,0,3.09,1.38,3.09,3.09l0,0
						c0,1.7-1.38,3.09-3.09,3.09h-5.8C315.54,329.39,314.16,328.01,314.16,326.31z"/>
				</g>
			</g>
		</g>
		<polygon class="st3" points="221.43,413.79 183.73,413.79 183.73,286.79 220.86,262.96 220.86,349.07 		"/>
		<polygon class="st2" points="220.86,347.72 259.13,347.72 259.13,413.79 221.43,413.79 		"/>
		<g>
			<rect x="191.93" y="294" class="st0" width="8.71" height="8.71"/>
			<rect x="206.24" y="294" class="st0" width="8.71" height="8.71"/>
			<rect x="206.24" y="307.65" class="st0" width="8.71" height="8.71"/>
			<rect x="191.93" y="307.65" class="st0" width="8.71" height="8.71"/>
			<rect x="206.24" y="320.41" class="st0" width="8.71" height="8.71"/>
			<rect x="191.93" y="320.41" class="st0" width="8.71" height="8.71"/>
			<rect x="206.24" y="333.16" class="st0" width="8.71" height="8.71"/>
			<rect x="191.93" y="333.16" class="st0" width="8.71" height="8.71"/>
			<path class="st0" d="M238.62,354.63h-6.56c-1.05,0-1.91-1.95-1.91-4.35l0,0c0-2.4,0.85-4.35,1.91-4.35h6.56
				c1.05,0,1.91,1.95,1.91,4.35l0,0C240.53,352.68,239.68,354.63,238.62,354.63z"/>
			<path class="st0" d="M211.84,354.63h-16.15c-2.08,0-3.76-1.69-3.76-3.76v-1.18c0-2.08,1.69-3.76,3.76-3.76h16.15
				c2.08,0,3.76,1.69,3.76,3.76v1.18C215.6,352.94,213.92,354.63,211.84,354.63z"/>
			<path class="st0" d="M238.62,367.39h-6.56c-1.05,0-1.91-1.95-1.91-4.35l0,0c0-2.4,0.85-4.35,1.91-4.35h6.56
				c1.05,0,1.91,1.95,1.91,4.35l0,0C240.53,365.44,239.68,367.39,238.62,367.39z"/>
			<path class="st0" d="M211.84,367.39h-16.15c-2.08,0-3.76-1.69-3.76-3.76v-1.18c0-2.08,1.69-3.76,3.76-3.76h16.15
				c2.08,0,3.76,1.69,3.76,3.76v1.18C215.6,365.7,213.92,367.39,211.84,367.39z"/>
			<path class="st0" d="M238.62,380.14h-6.56c-1.05,0-1.91-1.95-1.91-4.35l0,0c0-2.4,0.85-4.35,1.91-4.35h6.56
				c1.05,0,1.91,1.95,1.91,4.35l0,0C240.53,378.19,239.68,380.14,238.62,380.14z"/>
			<path class="st0" d="M211.84,380.14h-16.15c-2.08,0-3.76-1.69-3.76-3.76v-1.18c0-2.08,1.69-3.76,3.76-3.76h16.15
				c2.08,0,3.76,1.69,3.76,3.76v1.18C215.6,378.46,213.92,380.14,211.84,380.14z"/>
			<path class="st0" d="M254.62,354.63h-6.56c-1.05,0-1.91-1.95-1.91-4.35l0,0c0-2.4,0.85-4.35,1.91-4.35h6.56
				c1.05,0,1.91,1.95,1.91,4.35l0,0C256.53,352.68,255.68,354.63,254.62,354.63z"/>
			<path class="st0" d="M254.62,367.39h-6.56c-1.05,0-1.91-1.95-1.91-4.35l0,0c0-2.4,0.85-4.35,1.91-4.35h6.56
				c1.05,0,1.91,1.95,1.91,4.35l0,0C256.53,365.44,255.68,367.39,254.62,367.39z"/>
			<path class="st0" d="M254.62,380.14h-6.56c-1.05,0-1.91-1.95-1.91-4.35l0,0c0-2.4,0.85-4.35,1.91-4.35h6.56
				c1.05,0,1.91,1.95,1.91,4.35l0,0C256.53,378.19,255.68,380.14,254.62,380.14z"/>
		</g>
		<g>
			<rect x="368.29" y="323.22" class="st3" width="52.69" height="78.66"/>
			<g>
				<rect x="374.55" y="328.88" class="st0" width="5.03" height="24.21"/>
				<rect x="383.67" y="328.88" class="st0" width="5.04" height="24.21"/>
				<rect x="392.78" y="328.88" class="st0" width="5.04" height="24.21"/>
				<rect x="401.89" y="328.88" class="st0" width="5.03" height="24.21"/>
				<rect x="411" y="328.88" class="st0" width="5.04" height="24.21"/>
			</g>
			<g>
				<rect x="374.55" y="357.23" class="st0" width="5.03" height="24.21"/>
				<rect x="383.67" y="357.23" class="st0" width="5.04" height="24.21"/>
				<rect x="392.78" y="357.23" class="st0" width="5.04" height="24.21"/>
				<rect x="401.89" y="357.23" class="st0" width="5.03" height="24.21"/>
				<rect x="411" y="357.23" class="st0" width="5.04" height="24.21"/>
			</g>
		</g>
	</g>
	<g>
		<path class="st4" d="M322.49,330.98l-3.37,0.32C320.13,331.26,321.26,331.15,322.49,330.98z"/>
	</g>
	<g>
		<g>
			<line class="st5" x1="503.75" y1="188.29" x2="484.44" y2="188.29"/>
			<line class="st5" x1="482.87" y1="188.29" x2="480.77" y2="188.29"/>
			<line class="st5" x1="479.2" y1="188.29" x2="478.15" y2="188.29"/>
			<line class="st5" x1="503.75" y1="185.73" x2="481.82" y2="185.73"/>
		</g>
		<g>
			<line class="st5" x1="442.74" y1="66.73" x2="423.43" y2="66.73"/>
			<line class="st5" x1="421.86" y1="66.73" x2="419.76" y2="66.73"/>
			<line class="st5" x1="418.18" y1="66.73" x2="417.13" y2="66.73"/>
			<line class="st5" x1="449.15" y1="66.73" x2="447.05" y2="66.73"/>
			<line class="st5" x1="445.48" y1="66.73" x2="444.43" y2="66.73"/>
			<line class="st5" x1="442.74" y1="64.17" x2="420.81" y2="64.17"/>
		</g>
		<g>
			<line class="st5" x1="487.62" y1="176.57" x2="490.92" y2="179.87"/>
			<line class="st5" x1="490.92" y1="176.57" x2="487.62" y2="179.87"/>
		</g>
		<g>
			<line class="st5" x1="409.28" y1="64.17" x2="412.57" y2="67.47"/>
			<line class="st5" x1="412.57" y1="64.17" x2="409.28" y2="67.47"/>
		</g>
		<g>
			<line class="st5" x1="79.61" y1="82.89" x2="60.3" y2="82.89"/>
			<line class="st5" x1="86.02" y1="82.89" x2="83.92" y2="82.89"/>
			<line class="st5" x1="82.35" y1="82.89" x2="81.3" y2="82.89"/>
			<line class="st5" x1="79.61" y1="80.33" x2="57.68" y2="80.33"/>
		</g>
		<g>
			<line class="st5" x1="46.15" y1="80.33" x2="49.45" y2="83.63"/>
			<line class="st5" x1="49.45" y1="80.33" x2="46.15" y2="83.63"/>
		</g>
		<line class="st5" x1="14.1" y1="182.43" x2="-5.21" y2="182.43"/>
		<line class="st5" x1="20.52" y1="182.43" x2="18.41" y2="182.43"/>
		<line class="st5" x1="16.84" y1="182.43" x2="15.79" y2="182.43"/>
		<line class="st5" x1="14.1" y1="179.87" x2="-7.83" y2="179.87"/>
		<circle class="st5" cx="86.63" cy="40.75" r="1.66"/>
		<g>
			<line class="st5" x1="13.59" y1="81.71" x2="13.59" y2="83.81"/>
			<line class="st5" x1="13.59" y1="85.38" x2="13.59" y2="86.43"/>
		</g>
		<path class="st5" d="M5.8,76.73c0,0.92-0.74,1.66-1.66,1.66s-1.66-0.74-1.66-1.66c0-0.92,0.74-1.66,1.66-1.66S5.8,75.82,5.8,76.73
			z"/>
		<g>
			<line class="st5" x1="38.05" y1="19.38" x2="18.74" y2="19.38"/>
			<line class="st5" x1="44.47" y1="19.38" x2="42.37" y2="19.38"/>
			<line class="st5" x1="40.8" y1="19.38" x2="39.75" y2="19.38"/>
		</g>
		<path class="st5" d="M497.24,120.08c0,0.92-0.74,1.66-1.66,1.66s-1.66-0.74-1.66-1.66s0.74-1.66,1.66-1.66
			S497.24,119.16,497.24,120.08z"/>
	</g>
	<g>
		<path class="st0" d="M142.38,122.25h14.36v34.88h0.34l33.74-34.88h19.38l-37.73,37.28l40.24,43.43h-20.18l-35.45-40.47h-0.34
			v40.47h-14.36V122.25z"/>
		<path class="st0" d="M292.98,122.25h16.07l22.23,62.13h0.46l22.46-62.13h15.5l-32.38,80.71H324.9L292.98,122.25z"/>
	</g>
	<g>
		<g>
			<line class="st5" x1="223.12" y1="212.57" x2="120.87" y2="212.57"/>
			<line class="st5" x1="112.55" y1="212.57" x2="101.42" y2="212.57"/>
			<line class="st5" x1="93.1" y1="212.57" x2="87.54" y2="212.57"/>
			<line class="st5" x1="257.1" y1="212.57" x2="245.97" y2="212.57"/>
			<line class="st5" x1="237.65" y1="212.57" x2="232.09" y2="212.57"/>
			<line class="st5" x1="223.12" y1="207.85" x2="106.99" y2="207.85"/>
		</g>
		<g>
			<line class="st5" x1="378.48" y1="207.85" x2="276.23" y2="207.85"/>
			<line class="st5" x1="267.91" y1="207.85" x2="256.78" y2="207.85"/>
			<line class="st5" x1="248.47" y1="207.85" x2="242.9" y2="207.85"/>
			<line class="st5" x1="412.46" y1="207.85" x2="401.33" y2="207.85"/>
			<line class="st5" x1="393.01" y1="207.85" x2="387.45" y2="207.85"/>
			<line class="st5" x1="378.48" y1="212.57" x2="262.35" y2="212.57"/>
		</g>
	</g>
	<g>
		<polygon class="st6" points="308.03,24.91 299.62,38.7 303.82,38.7 313.89,25.17 		"/>
		<polygon class="st6" points="309.19,22.74 315.24,12.88 319.16,12.49 311.81,27.36 		"/>
		<path class="st6" d="M287.71,16.3l3.76,11.03h37.99c0,0,2.65,0,2.65-2.65c0-2.09-1.81-2.98-2.98-2.98c-1.7,0-33.8,0-33.8,0
			l-4.03-5.4H287.71z"/>
		<g>
			<g>
				<line class="st7" x1="218.16" y1="25.97" x2="180.24" y2="25.97"/>
				<line class="st7" x1="177.16" y1="25.97" x2="173.03" y2="25.97"/>
				<line class="st7" x1="169.95" y1="25.97" x2="167.88" y2="25.97"/>
				<line class="st7" x1="230.76" y1="25.97" x2="226.63" y2="25.97"/>
				<line class="st7" x1="223.55" y1="25.97" x2="221.48" y2="25.97"/>
				<line class="st7" x1="218.16" y1="22.4" x2="175.09" y2="22.4"/>
			</g>
			<g>
				<line class="st7" x1="275.77" y1="22.4" x2="237.85" y2="22.4"/>
				<line class="st7" x1="234.77" y1="22.4" x2="230.64" y2="22.4"/>
				<line class="st7" x1="227.56" y1="22.4" x2="225.49" y2="22.4"/>
				<line class="st7" x1="288.37" y1="22.4" x2="284.24" y2="22.4"/>
				<line class="st7" x1="281.16" y1="22.4" x2="279.1" y2="22.4"/>
				<line class="st7" x1="275.77" y1="25.97" x2="232.7" y2="25.97"/>
			</g>
		</g>
	</g>
	<g>
		<path class="st0" d="M247.58,148.14c0,6.5-5.27,11.78-11.78,11.78h0h-16.64l15.34-3.81c4.56-1.13,8.13-4.7,9.26-9.26l3.81-15.34
			V148.14L247.58,148.14z"/>
		<path class="st0" d="M252.42,148.14c0,6.5,5.27,11.78,11.78,11.78l0,0h16.64l-15.34-3.81c-4.56-1.13-8.13-4.7-9.26-9.26
			l-3.81-15.34V148.14L252.42,148.14z"/>
		<path class="st0" d="M247.58,176.54c0-6.5-5.27-11.78-11.78-11.78h0h-16.64l15.34,3.81c4.56,1.13,8.13,4.7,9.26,9.26l3.81,15.34
			V176.54L247.58,176.54z"/>
		<path class="st0" d="M252.42,176.54c0-6.5,5.27-11.78,11.78-11.78l0,0h16.64l-15.34,3.81c-4.56,1.13-8.13,4.7-9.26,9.26
			l-3.81,15.34V176.54L252.42,176.54z"/>
	</g>
</g>
<g id="Layer_2">
	<g>
		<path class="st8" d="M47.92,352.77c1.76,0.87,3.54,1.74,5.37,2.63l10.18-7.94v12.76c2.95,1.37,5.97,2.74,9.05,4.11l4.85-3.85
			l2.24,6.97c2.94,1.27,5.94,2.54,8.99,3.8l4.5-8.37l0.72,10.5c1,0.41,2.02,0.81,3.03,1.21c2.23-2.82,6.29-5.04,13.53-2.06
			c6.85,2.82,12.75,8.36,16.98,13.24c4.41,1.47,8.87,2.91,13.38,4.28l9.86-7.74l7.25,12.62c1.22,0.32,2.43,0.65,3.66,0.96l6.38-6.47
			l6.68,9.6c1.17,0.26,2.35,0.53,3.53,0.78l8.73-17.15l9.44,20.61c1.86,0.31,3.71,0.6,5.57,0.88l3.36-23.86l17.91,24.79l8.97-19.36
			l5.51,21.77c0.06,0,0.11,0,0.17,0.01L250,384.36l12.35,20.71l8.62-14.32l7.86,10.03c0,0-1.41-15.18,12.26-8.83
			c12.03,5.59,17.31,9.35,18.4,10.18c0.07-0.01,0.14-0.02,0.21-0.03c-0.12-2.18-0.89-21.61,9.42-16.04
			c8.3,4.48,18.65,8.41,23.14,10.03c0.82-0.17,1.64-0.34,2.45-0.52c0.67-3.6,3.44-13.36,13.7-13.91c7.86-0.42,12.19,4.05,14.33,7.47
			c1.08-0.27,2.16-0.53,3.24-0.8l3.59-11.37l9.94,7.89c1.08-0.29,2.17-0.58,3.25-0.87v-17.97l14.64,13.94
			c1.2-0.34,2.39-0.68,3.58-1.02v-24.06l8.48,21.6c1.17-0.34,2.33-0.69,3.49-1.03l5.39-13.2l12.22,7.84
			c1.55-0.48,3.1-0.97,4.64-1.45c0.4-0.83,0.81-1.66,1.2-2.5l3.67-11.93l0.77,1.71c11.05-27.34,16.68-57.38,15.56-88.75
			c-4.25-119.52-104.58-212.96-224.1-208.72C122.79,62.67,29.35,163,33.59,282.52C34.47,307.27,39.48,330.89,47.92,352.77z"/>
		<path class="st4" d="M178.11,399.82c-1.18-0.25-2.35-0.52-3.53-0.78l2.27,3.26L178.11,399.82z"/>
		<path class="st4" d="M135.41,430.33l8.56-14.6l-16.2-1.53v14.28C130.28,429.14,132.83,429.75,135.41,430.33z"/>
		<path class="st4" d="M111.77,423.56l5.01-10.39l-9.79-0.92v9.46C108.54,422.35,110.13,422.96,111.77,423.56z"/>
		<path class="st4" d="M201.85,404.15c-1.86-0.28-3.72-0.57-5.57-0.88l4.36,9.51L201.85,404.15z"/>
		<path class="st4" d="M237.77,407.49c-0.06,0-0.11,0-0.17-0.01l0.06,0.22L237.77,407.49z"/>
		<path class="st4" d="M153.34,433.79l4.62-9.11l9.65,11.2c34.88,4.49,66.63,4.49,66.63,4.49s75.7-1.41,122.54-10.27l-3.01-11.22
			l-116.12,5.69l-91.14-8.59l-0.45,16.55C148.49,432.97,150.91,433.39,153.34,433.79z"/>
		<path class="st4" d="M378.48,424.61c1.02-0.36,2.02-0.73,3.03-1.11l-0.39-5.97l-22.83,1.12l10.75,8.76
			C372.48,426.54,375.66,425.61,378.48,424.61z"/>
		<path class="st4" d="M96.86,374.6c-1.01-0.4-2.03-0.81-3.03-1.21l0.47,6.9C94.3,380.29,94.81,377.19,96.86,374.6z"/>
		<path class="st4" d="M102.64,411.84l-14.99-1.41c3.21,2.81,7.1,5.36,11.52,7.67L102.64,411.84z"/>
		<path class="st4" d="M443.56,371.98c0.56-1.12,1.11-2.24,1.65-3.37c-1.54,0.49-3.08,0.97-4.64,1.45L443.56,371.98z"/>
		<path class="st4" d="M344.72,395.56c-0.82,0.17-1.64,0.35-2.45,0.52c1.42,0.51,2.26,0.8,2.26,0.8S344.57,396.38,344.72,395.56z"/>
		<path class="st4" d="M161.52,395.91c-1.22-0.31-2.44-0.64-3.66-0.96l1.7,2.95L161.52,395.91z"/>
		<path class="st4" d="M140.75,390.06c-4.51-1.38-8.98-2.81-13.38-4.28c4.34,5.02,6.91,9.36,6.91,9.36L140.75,390.06z"/>
		<path class="st4" d="M88.61,371.25c-3.05-1.26-6.05-2.53-8.99-3.8l4.13,12.84L88.61,371.25z"/>
		<path class="st4" d="M392.78,383.96c-1.08,0.29-2.16,0.58-3.25,0.87l3.25,2.58V383.96z"/>
		<path class="st4" d="M72.52,364.33c-3.08-1.38-6.1-2.75-9.05-4.11v11.29L72.52,364.33z"/>
		<path class="st4" d="M422.97,375.42c-1.16,0.34-2.32,0.69-3.49,1.03l1.5,3.83L422.97,375.42z"/>
		<path class="st4" d="M47.92,352.77c0.67,1.74,1.37,3.47,2.08,5.19l3.29-2.56C51.46,354.51,49.68,353.64,47.92,352.77z"/>
		<path class="st4" d="M411,378.91c-1.19,0.34-2.39,0.68-3.58,1.02l3.58,3.41V378.91z"/>
		<path class="st4" d="M309.7,402.09c-0.07,0.01-0.14,0.02-0.21,0.03c0.15,0.11,0.23,0.17,0.23,0.17S309.71,402.22,309.7,402.09z"/>
		<path class="st4" d="M375.99,388.31c-1.08,0.27-2.16,0.54-3.24,0.8c1.3,2.07,1.8,3.75,1.8,3.75L375.99,388.31z"/>
		<path class="st4" d="M397.2,416.75l-6.6,0.32l0.95,2.3C393.46,418.52,395.34,417.65,397.2,416.75z"/>
		<path class="st4" d="M428.36,362.23l-5.39,13.2l-1.99,4.86l-1.5-3.83l-8.48-21.6v24.06v4.43l-3.58-3.41l-14.64-13.94v17.97v3.44
			l-3.25-2.58l-9.94-7.89l-3.59,11.37l-1.44,4.56c0,0-0.5-1.69-1.8-3.75c-2.15-3.42-6.48-7.89-14.33-7.47
			c-10.27,0.55-13.03,10.32-13.7,13.91c-0.15,0.82-0.2,1.32-0.2,1.32s-0.84-0.29-2.26-0.8c-4.49-1.63-14.85-5.55-23.14-10.03
			c-10.31-5.57-9.54,13.86-9.42,16.04c0.01,0.13,0.01,0.21,0.01,0.21s-0.08-0.06-0.23-0.17c-1.09-0.82-6.37-4.59-18.4-10.18
			c-13.67-6.35-12.26,8.83-12.26,8.83l-7.86-10.03l-8.62,14.32L250,384.36l-12.23,23.13l-0.12,0.22l-0.06-0.22l-5.51-21.77
			l-8.97,19.36l-17.91-24.79l-3.36,23.86l-1.22,8.64l-4.36-9.51l-9.44-20.61l-8.73,17.15l-1.26,2.48l-2.27-3.26l-6.68-9.6
			l-6.38,6.47l-1.96,1.99l-1.7-2.95l-7.25-12.62l-9.86,7.74l-6.47,5.08c0,0-2.57-4.34-6.91-9.36c-4.22-4.89-10.12-10.42-16.98-13.24
			c-7.24-2.98-11.3-0.76-13.53,2.06c-2.05,2.59-2.56,5.69-2.56,5.69l-0.47-6.9l-0.72-10.5l-4.5,8.37l-4.86,9.04l-4.13-12.84
			l-2.24-6.97l-4.85,3.85l-9.05,7.18v-11.29v-12.76l-10.18,7.94L50,357.96c4.8,11.55,10.58,22.59,17.22,33.02l4.66-4.56l-0.74,8.85
			c4.68,3.16,8.96,6.86,12.6,11.22c1.15,1.37,2.46,2.68,3.9,3.94l14.99,1.41l4.35-7.85v8.26l9.79,0.92l11-22.82v23.86l16.2,1.53
			l2.68-4.56l-0.13,4.8l91.14,8.59l116.12-5.69l-1.34-4.99l5.85,4.77l22.83-1.12l-1.81-27.96l11.28,27.49l6.6-0.32
			c0.2-0.1,0.41-0.2,0.61-0.3v-23.01l16.32,14.4c3.95-2.21,7.82-4.44,11.64-6.61l3.44-9.08l1.17,2.5
			c4.83-7.26,9.24-14.83,13.18-22.66l-2.98-1.92L428.36,362.23z"/>
		<path class="st4" d="M446.41,366.11c1.57-3.36,3.04-6.77,4.44-10.22l-0.77-1.71L446.41,366.11z"/>
		<path class="st9" d="M391.54,419.38l-0.95-2.3l-11.28-27.49l1.81,27.96l0.39,5.97C384.96,422.21,388.3,420.83,391.54,419.38z"/>
		<path class="st9" d="M369.03,427.42l-10.75-8.76l-5.85-4.77l1.34,4.99l3.01,11.22C361.14,429.27,365.26,428.38,369.03,427.42z"/>
		<path class="st9" d="M106.99,421.7v-9.46v-8.26l-4.35,7.85l-3.46,6.25C101.62,419.37,104.24,420.57,106.99,421.7z"/>
		<path class="st9" d="M146.07,432.52l0.45-16.55l0.13-4.8l-2.68,4.56l-8.56,14.6C138.92,431.12,142.48,431.85,146.07,432.52z"/>
		<path class="st9" d="M127.77,428.49v-14.28v-23.86l-11,22.82l-5.01,10.39C116.79,425.4,122.16,427.03,127.77,428.49z"/>
		<path class="st9" d="M153.34,433.79c4.77,0.78,9.55,1.47,14.27,2.08l-9.65-11.2L153.34,433.79z"/>
		<path class="st9" d="M425.78,401.23c0.03-0.01,0.05-0.03,0.08-0.04c1.55-2.15,3.06-4.33,4.53-6.54l-1.17-2.5L425.78,401.23z"/>
		<path class="st9" d="M71.88,386.42l-4.66,4.56c0.64,1,1.27,2,1.92,2.98c0.68,0.42,1.34,0.86,2,1.31L71.88,386.42z"/>
		<path class="st9" d="M397.81,393.44v23.01c5.67-2.76,11.07-5.67,16.32-8.61L397.81,393.44z"/>
		<path class="st9" d="M414.13,407.84c-5.25,2.94-10.65,5.85-16.32,8.61c-0.2,0.1-0.41,0.2-0.61,0.3c-1.85,0.9-3.74,1.77-5.65,2.63
			c-3.25,1.45-6.58,2.83-10.04,4.13c-1,0.38-2,0.75-3.03,1.11c-2.82,1-6,1.93-9.45,2.8c-3.78,0.96-7.89,1.85-12.26,2.68
			c-46.84,8.86-122.54,10.27-122.54,10.27s-31.75,0-66.63-4.49c-4.73-0.61-9.51-1.3-14.27-2.08c-2.43-0.4-4.86-0.83-7.27-1.28
			c-3.59-0.67-7.15-1.4-10.66-2.18c-2.58-0.58-5.13-1.19-7.64-1.84c-5.61-1.46-10.99-3.09-16.01-4.93c-1.63-0.6-3.23-1.22-4.78-1.86
			c-2.75-1.14-5.36-2.34-7.81-3.62c-4.43-2.31-8.32-4.86-11.52-7.67c-1.44-1.26-2.75-2.57-3.9-3.94c-3.64-4.35-7.93-8.06-12.6-11.22
			c-0.66-0.45-1.33-0.88-2-1.31c17.13,25.95,39.68,47.95,65.97,64.44c11.22,0.71,22.22,1.63,32.8,2.67
			c6.5-0.6,12.65-1.75,18.28-3.59c44.63-14.57,77.4,4.98,77.4,4.98s20.33-31.38,51.29-22.89c10.41,2.86,23.28,4.96,35.65,7.14
			c15.03-4.24,29.25-7.25,40-7.13c13.26-11.33,25.13-24.23,35.32-38.39c-0.03,0.01-0.05,0.03-0.08,0.04
			C421.95,403.4,418.08,405.63,414.13,407.84z"/>
		<path class="st10" d="M267.91,472.23c11.71-0.56,49.14-16.09,82.62-25.53c-12.37-2.18-25.24-4.28-35.65-7.14
			c-30.95-8.49-51.29,22.89-51.29,22.89s-32.77-19.55-77.4-4.98c-5.64,1.84-11.79,3-18.28,3.59
			C215.95,465.79,255.36,472.83,267.91,472.23z"/>
		<path class="st11" d="M350.53,446.7c-33.48,9.44-70.91,24.98-82.62,25.53c-12.55,0.6-51.96-6.45-100.01-11.16
			c-10.58-1.04-21.58-1.96-32.8-2.67c11.53,7.23,23.79,13.4,36.62,18.38c19.92-0.65,40.28-0.4,60.36,1.17
			c25.99,2.04,49.44,4.52,70.66,6.93c32.97-8.24,62.85-24,87.78-45.31C379.78,439.45,365.55,442.46,350.53,446.7z"/>
		<path class="st12" d="M171.73,476.78c26.59,10.32,55.65,15.53,85.96,14.46c15.51-0.55,30.58-2.73,45.06-6.35
			c-21.22-2.41-44.66-4.89-70.66-6.93C212.01,476.38,191.65,476.13,171.73,476.78z"/>
	</g>
</g>
</svg>
