<svg xmlns="http://www.w3.org/2000/svg" viewBox="0 0 500 500"><defs><style>.cls-1,.cls-7{fill:#deac2f;}.cls-2{fill:#350ff2;}.cls-3{fill:#071859;}.cls-4{fill:#263f7a;}.cls-5{fill:#181f70;}.cls-11,.cls-12,.cls-6{fill:none;}.cls-11,.cls-6{stroke:#76aad2;stroke-miterlimit:10;}.cls-7{font-size:114px;font-family:AvenirNext-DemiBold, Avenir Next;font-weight:300;}.cls-8{letter-spacing:-0.01em;}.cls-9{letter-spacing:-0.02em;}.cls-10{fill:#76aad2;}.cls-11{stroke-width:0.79px;}.cls-13{fill:#17356d;}.cls-14{fill:#1f265d;}.cls-15{fill:#0c0959;}.cls-16{fill:#001321;}</style></defs><title>kinevologo-or</title><g id="Layer_1" data-name="Layer 1"><circle class="cls-1" cx="250" cy="259.41" r="216.54"/><circle class="cls-2" cx="250" cy="274.83" r="216.54"/><polygon class="cls-3" points="401.63 240.59 354.05 274.83 354.05 319.78 303.24 319.78 303.24 401.08 401.63 401.08 401.63 240.59"/><rect class="cls-3" x="180.47" y="254.22" width="49.49" height="143.26"/><polygon class="cls-3" points="219.06 221.03 191.94 232.36 191.94 254.22 219.06 254.22 219.06 221.03"/><rect class="cls-3" x="176.77" y="265.97" width="57.48" height="11.49"/><polygon class="cls-3" points="263.59 410.19 229.96 410.19 229.96 319.54 263.59 289.72 263.59 410.19"/><polygon class="cls-3" points="167.21 397.48 124.04 397.48 124.04 254.22 164.64 292.81 167.21 397.48"/><polygon class="cls-3" points="83.75 397.48 124.04 397.48 124.04 318.23 83.75 353.64 83.75 397.48"/><polygon class="cls-3" points="104.37 345.72 97.66 345.72 97.66 312.67 104.37 308.39 104.37 345.72"/><polygon class="cls-3" points="385.38 279.07 361.56 279.07 361.56 245.36 383.67 269.26 385.38 279.07"/><rect class="cls-4" x="146.65" y="321.46" width="33.34" height="87"/><rect class="cls-1" x="150.61" y="327.05" width="3.19" height="70.43" rx="1.59"/><rect class="cls-1" x="156.37" y="327.05" width="3.19" height="70.43" rx="1.59"/><rect class="cls-1" x="162.14" y="327.05" width="3.19" height="70.43" rx="1.59"/><rect class="cls-1" x="167.9" y="327.05" width="3.19" height="70.43" rx="1.59"/><rect class="cls-1" x="173.67" y="327.05" width="3.19" height="70.43" rx="1.59"/><polygon class="cls-4" points="160.79 315.46 151.08 319.93 151.08 321.46 160.79 321.46 160.79 315.46"/><polygon class="cls-4" points="174.35 315.46 164.64 319.93 164.64 321.46 174.35 321.46 174.35 315.46"/><rect class="cls-4" x="265.46" y="271.03" width="64.58" height="140.52"/><polygon class="cls-3" points="292.85 261.02 274.04 268.47 274.04 271.03 292.85 271.03 292.85 261.02"/><polygon class="cls-3" points="319.12 261.02 300.31 268.47 300.31 271.03 319.12 271.03 319.12 261.02"/><rect class="cls-1" x="273.87" y="331.99" width="6.17" height="11.97" transform="translate(614.94 61.03) rotate(90)"/><rect class="cls-1" x="273.87" y="343.16" width="6.17" height="11.97" transform="translate(626.1 72.19) rotate(90)"/><rect class="cls-1" x="273.87" y="354.33" width="6.17" height="11.97" transform="translate(637.27 83.36) rotate(90)"/><rect class="cls-1" x="273.87" y="365.49" width="6.17" height="11.97" transform="translate(648.44 94.53) rotate(90)"/><rect class="cls-1" x="273.87" y="376.66" width="6.17" height="11.97" transform="translate(659.6 105.69) rotate(90)"/><rect class="cls-1" x="288.27" y="331.99" width="6.17" height="11.97" transform="translate(629.33 46.63) rotate(90)"/><rect class="cls-1" x="288.27" y="343.16" width="6.17" height="11.97" transform="translate(640.5 57.8) rotate(90)"/><rect class="cls-1" x="288.27" y="354.33" width="6.17" height="11.97" transform="translate(651.67 68.96) rotate(90)"/><rect class="cls-1" x="288.27" y="365.49" width="6.17" height="11.97" transform="translate(662.83 80.13) rotate(90)"/><rect class="cls-1" x="288.27" y="376.66" width="6.17" height="11.97" transform="translate(674 91.3) rotate(90)"/><rect class="cls-1" x="302.66" y="331.99" width="6.17" height="11.97" transform="translate(643.73 32.23) rotate(90)"/><rect class="cls-1" x="302.66" y="343.16" width="6.17" height="11.97" transform="translate(654.9 43.4) rotate(90)"/><rect class="cls-1" x="302.66" y="354.33" width="6.17" height="11.97" transform="translate(666.06 54.57) rotate(90)"/><rect class="cls-1" x="302.66" y="365.49" width="6.17" height="11.97" transform="translate(677.23 65.73) rotate(90)"/><rect class="cls-1" x="302.66" y="376.66" width="6.17" height="11.97" transform="translate(688.4 76.9) rotate(90)"/><rect class="cls-1" x="317.06" y="331.99" width="6.17" height="11.97" transform="translate(658.12 17.84) rotate(90)"/><rect class="cls-1" x="317.06" y="343.16" width="6.17" height="11.97" transform="translate(669.29 29) rotate(90)"/><rect class="cls-1" x="317.06" y="354.33" width="6.17" height="11.97" transform="translate(680.46 40.17) rotate(90)"/><rect class="cls-1" x="317.06" y="365.49" width="6.17" height="11.97" transform="translate(691.63 51.34) rotate(90)"/><rect class="cls-1" x="317.06" y="376.66" width="6.17" height="11.97" transform="translate(702.79 62.51) rotate(90)"/><rect class="cls-1" x="273.87" y="275.65" width="6.17" height="11.97" rx="3.09" transform="translate(558.6 4.69) rotate(90)"/><rect class="cls-1" x="273.87" y="286.82" width="6.17" height="11.97" rx="3.09" transform="translate(569.76 15.85) rotate(90)"/><rect class="cls-1" x="273.87" y="297.99" width="6.17" height="11.97" rx="3.09" transform="translate(580.93 27.02) rotate(90)"/><rect class="cls-1" x="273.87" y="309.15" width="6.17" height="11.97" rx="3.09" transform="translate(592.1 38.19) rotate(90)"/><rect class="cls-1" x="273.87" y="320.32" width="6.17" height="11.97" rx="3.09" transform="translate(603.26 49.35) rotate(90)"/><rect class="cls-1" x="288.27" y="275.65" width="6.17" height="11.97" rx="3.09" transform="translate(572.99 -9.71) rotate(90)"/><rect class="cls-1" x="288.27" y="286.82" width="6.17" height="11.97" rx="3.09" transform="translate(584.16 1.46) rotate(90)"/><rect class="cls-1" x="288.27" y="297.99" width="6.17" height="11.97" rx="3.09" transform="translate(595.33 12.62) rotate(90)"/><rect class="cls-1" x="288.27" y="309.15" width="6.17" height="11.97" rx="3.09" transform="translate(606.49 23.79) rotate(90)"/><rect class="cls-1" x="288.27" y="320.32" width="6.17" height="11.97" rx="3.09" transform="translate(617.66 34.96) rotate(90)"/><rect class="cls-1" x="302.66" y="275.65" width="6.17" height="11.97" rx="3.09" transform="translate(587.39 -24.11) rotate(90)"/><rect class="cls-1" x="302.66" y="286.82" width="6.17" height="11.97" rx="3.09" transform="translate(598.55 -12.94) rotate(90)"/><rect class="cls-1" x="302.66" y="297.99" width="6.17" height="11.97" rx="3.09" transform="translate(609.72 -1.77) rotate(90)"/><rect class="cls-1" x="302.66" y="309.15" width="6.17" height="11.97" rx="3.09" transform="translate(620.89 9.39) rotate(90)"/><rect class="cls-1" x="302.66" y="320.32" width="6.17" height="11.97" rx="3.09" transform="translate(632.06 20.56) rotate(90)"/><rect class="cls-1" x="317.06" y="275.65" width="6.17" height="11.97" rx="3.09" transform="translate(601.78 -38.5) rotate(90)"/><rect class="cls-1" x="317.06" y="286.82" width="6.17" height="11.97" rx="3.09" transform="translate(612.95 -27.34) rotate(90)"/><rect class="cls-1" x="317.06" y="297.99" width="6.17" height="11.97" rx="3.09" transform="translate(624.12 -16.17) rotate(90)"/><rect class="cls-1" x="317.06" y="309.15" width="6.17" height="11.97" rx="3.09" transform="translate(635.28 -5) rotate(90)"/><rect class="cls-1" x="317.06" y="320.32" width="6.17" height="11.97" rx="3.09" transform="translate(646.45 6.16) rotate(90)"/><polygon class="cls-4" points="221.43 413.79 183.73 413.79 183.73 286.79 220.86 262.96 220.86 349.07 221.43 413.79"/><polygon class="cls-3" points="220.86 347.72 259.13 347.72 259.13 413.79 221.43 413.79 220.86 347.72"/><rect class="cls-1" x="191.93" y="294" width="8.71" height="8.71"/><rect class="cls-1" x="206.24" y="294" width="8.71" height="8.71"/><rect class="cls-1" x="206.24" y="307.65" width="8.71" height="8.71"/><rect class="cls-1" x="191.93" y="307.65" width="8.71" height="8.71"/><rect class="cls-1" x="206.24" y="320.41" width="8.71" height="8.71"/><rect class="cls-1" x="191.93" y="320.41" width="8.71" height="8.71"/><rect class="cls-1" x="206.24" y="333.16" width="8.71" height="8.71"/><rect class="cls-1" x="191.93" y="333.16" width="8.71" height="8.71"/><path class="cls-1" d="M238.62,354.63h-6.55c-1.06,0-1.91-1.95-1.91-4.35h0c0-2.41.85-4.36,1.91-4.36h6.55c1.06,0,1.91,1.95,1.91,4.36h0C240.53,352.68,239.68,354.63,238.62,354.63Z"/><rect class="cls-1" x="191.93" y="345.92" width="23.68" height="8.71" rx="3.76"/><path class="cls-1" d="M238.62,367.39h-6.55c-1.06,0-1.91-1.95-1.91-4.36h0c0-2.4.85-4.35,1.91-4.35h6.55c1.06,0,1.91,1.95,1.91,4.35h0C240.53,365.44,239.68,367.39,238.62,367.39Z"/><rect class="cls-1" x="191.93" y="358.68" width="23.68" height="8.71" rx="3.76"/><path class="cls-1" d="M238.62,380.14h-6.55c-1.06,0-1.91-1.95-1.91-4.35h0c0-2.4.85-4.35,1.91-4.35h6.55c1.06,0,1.91,1.95,1.91,4.35h0C240.53,378.19,239.68,380.14,238.62,380.14Z"/><rect class="cls-1" x="191.93" y="371.44" width="23.68" height="8.71" rx="3.76"/><path class="cls-1" d="M254.62,354.63h-6.55c-1.06,0-1.91-1.95-1.91-4.35h0c0-2.41.85-4.36,1.91-4.36h6.55c1.06,0,1.91,1.95,1.91,4.36h0C256.53,352.68,255.68,354.63,254.62,354.63Z"/><path class="cls-1" d="M254.62,367.39h-6.55c-1.06,0-1.91-1.95-1.91-4.36h0c0-2.4.85-4.35,1.91-4.35h6.55c1.06,0,1.91,1.95,1.91,4.35h0C256.53,365.44,255.68,367.39,254.62,367.39Z"/><path class="cls-1" d="M254.62,380.14h-6.55c-1.06,0-1.91-1.95-1.91-4.35h0c0-2.4.85-4.35,1.91-4.35h6.55c1.06,0,1.91,1.95,1.91,4.35h0C256.53,378.19,255.68,380.14,254.62,380.14Z"/><rect class="cls-4" x="368.29" y="323.22" width="52.69" height="78.66"/><rect class="cls-1" x="374.55" y="328.88" width="5.03" height="24.21"/><rect class="cls-1" x="383.67" y="328.88" width="5.04" height="24.21"/><rect class="cls-1" x="392.78" y="328.88" width="5.04" height="24.21"/><rect class="cls-1" x="401.89" y="328.88" width="5.03" height="24.21"/><rect class="cls-1" x="411" y="328.88" width="5.04" height="24.21"/><rect class="cls-1" x="374.55" y="357.23" width="5.03" height="24.21"/><rect class="cls-1" x="383.67" y="357.23" width="5.04" height="24.21"/><rect class="cls-1" x="392.78" y="357.23" width="5.04" height="24.21"/><rect class="cls-1" x="401.89" y="357.23" width="5.03" height="24.21"/><rect class="cls-1" x="411" y="357.23" width="5.04" height="24.21"/><path class="cls-5" d="M322.49,331l-3.37.32C320.13,331.26,321.26,331.15,322.49,331Z"/><line class="cls-6" x1="503.75" y1="188.29" x2="484.44" y2="188.29"/><line class="cls-6" x1="482.87" y1="188.29" x2="480.77" y2="188.29"/><line class="cls-6" x1="479.2" y1="188.29" x2="478.15" y2="188.29"/><line class="cls-6" x1="503.75" y1="185.73" x2="481.82" y2="185.73"/><line class="cls-6" x1="442.74" y1="66.73" x2="423.43" y2="66.73"/><line class="cls-6" x1="421.86" y1="66.73" x2="419.76" y2="66.73"/><line class="cls-6" x1="418.18" y1="66.73" x2="417.13" y2="66.73"/><line class="cls-6" x1="449.15" y1="66.73" x2="447.05" y2="66.73"/><line class="cls-6" x1="445.48" y1="66.73" x2="444.43" y2="66.73"/><line class="cls-6" x1="442.74" y1="64.17" x2="420.81" y2="64.17"/><line class="cls-6" x1="487.62" y1="176.57" x2="490.92" y2="179.87"/><line class="cls-6" x1="490.92" y1="176.57" x2="487.62" y2="179.87"/><line class="cls-6" x1="409.28" y1="64.17" x2="412.57" y2="67.47"/><line class="cls-6" x1="412.57" y1="64.17" x2="409.28" y2="67.47"/><line class="cls-6" x1="79.61" y1="82.89" x2="60.3" y2="82.89"/><line class="cls-6" x1="86.02" y1="82.89" x2="83.92" y2="82.89"/><line class="cls-6" x1="82.35" y1="82.89" x2="81.3" y2="82.89"/><line class="cls-6" x1="79.61" y1="80.33" x2="57.68" y2="80.33"/><line class="cls-6" x1="46.15" y1="80.33" x2="49.45" y2="83.63"/><line class="cls-6" x1="49.45" y1="80.33" x2="46.15" y2="83.63"/><line class="cls-6" x1="14.1" y1="182.43" x2="-5.21" y2="182.43"/><line class="cls-6" x1="20.52" y1="182.43" x2="18.41" y2="182.43"/><line class="cls-6" x1="16.84" y1="182.43" x2="15.79" y2="182.43"/><line class="cls-6" x1="14.1" y1="179.87" x2="-7.83" y2="179.87"/><circle class="cls-6" cx="86.63" cy="40.75" r="1.66"/><line class="cls-6" x1="13.59" y1="81.71" x2="13.59" y2="83.81"/><line class="cls-6" x1="13.59" y1="85.38" x2="13.59" y2="86.43"/><path class="cls-6" d="M5.8,76.73a1.66,1.66,0,1,1-1.66-1.66A1.66,1.66,0,0,1,5.8,76.73Z"/><line class="cls-6" x1="38.05" y1="19.38" x2="18.74" y2="19.38"/><line class="cls-6" x1="44.47" y1="19.38" x2="42.37" y2="19.38"/><line class="cls-6" x1="40.8" y1="19.38" x2="39.75" y2="19.38"/><path class="cls-6" d="M497.24,120.08a1.66,1.66,0,1,1-1.66-1.66A1.66,1.66,0,0,1,497.24,120.08Z"/><text class="cls-7" transform="translate(133.49 202.96)"><tspan class="cls-8">K</tspan><tspan x="77.18" y="0" xml:space="preserve">  </tspan><tspan class="cls-9" x="134.18" y="0" xml:space="preserve"> V</tspan></text><line class="cls-6" x1="223.12" y1="212.57" x2="120.87" y2="212.57"/><line class="cls-6" x1="112.55" y1="212.57" x2="101.42" y2="212.57"/><line class="cls-6" x1="93.1" y1="212.57" x2="87.54" y2="212.57"/><line class="cls-6" x1="257.1" y1="212.57" x2="245.97" y2="212.57"/><line class="cls-6" x1="237.65" y1="212.57" x2="232.09" y2="212.57"/><line class="cls-6" x1="223.12" y1="207.85" x2="106.99" y2="207.85"/><line class="cls-6" x1="378.48" y1="207.85" x2="276.23" y2="207.85"/><line class="cls-6" x1="267.91" y1="207.85" x2="256.78" y2="207.85"/><line class="cls-6" x1="248.47" y1="207.85" x2="242.9" y2="207.85"/><line class="cls-6" x1="412.46" y1="207.85" x2="401.33" y2="207.85"/><line class="cls-6" x1="393.01" y1="207.85" x2="387.45" y2="207.85"/><line class="cls-6" x1="378.48" y1="212.57" x2="262.35" y2="212.57"/><polygon class="cls-10" points="308.03 24.91 299.62 38.7 303.82 38.7 313.88 25.17 308.03 24.91"/><polygon class="cls-10" points="309.19 22.74 315.24 12.88 319.16 12.49 311.81 27.36 309.19 22.74"/><path class="cls-10" d="M287.71,16.3l3.76,11h38a2.6,2.6,0,0,0,2.66-2.65,3,3,0,0,0-3-3h-33.8l-4-5.4Z"/><line class="cls-11" x1="218.16" y1="25.97" x2="180.24" y2="25.97"/><line class="cls-11" x1="177.16" y1="25.97" x2="173.03" y2="25.97"/><line class="cls-11" x1="169.95" y1="25.97" x2="167.88" y2="25.97"/><line class="cls-11" x1="230.76" y1="25.97" x2="226.63" y2="25.97"/><line class="cls-11" x1="223.55" y1="25.97" x2="221.48" y2="25.97"/><line class="cls-11" x1="218.16" y1="22.4" x2="175.09" y2="22.4"/><line class="cls-11" x1="275.77" y1="22.4" x2="237.85" y2="22.4"/><line class="cls-11" x1="234.77" y1="22.4" x2="230.64" y2="22.4"/><line class="cls-11" x1="227.56" y1="22.4" x2="225.49" y2="22.4"/><line class="cls-11" x1="288.37" y1="22.4" x2="284.24" y2="22.4"/><line class="cls-11" x1="281.16" y1="22.4" x2="279.1" y2="22.4"/><line class="cls-11" x1="275.77" y1="25.97" x2="232.7" y2="25.97"/><path class="cls-1" d="M247.58,148.14a11.77,11.77,0,0,1-11.78,11.78H219.16l15.34-3.82a12.66,12.66,0,0,0,9.26-9.26l3.82-15.34v16.64Z"/><path class="cls-1" d="M252.42,148.14a11.77,11.77,0,0,0,11.78,11.78h16.64L265.5,156.1a12.66,12.66,0,0,1-9.26-9.26l-3.82-15.34v16.64Z"/><path class="cls-1" d="M247.58,176.54a11.78,11.78,0,0,0-11.78-11.78H219.16l15.34,3.82a12.68,12.68,0,0,1,9.26,9.26l3.82,15.34V176.54Z"/><path class="cls-1" d="M252.42,176.54a11.78,11.78,0,0,1,11.78-11.78h16.64l-15.34,3.82a12.68,12.68,0,0,0-9.26,9.26l-3.82,15.34V176.54Z"/></g><g id="Layer_2" data-name="Layer 2"><path class="cls-12" d="M53.29,355.4l10.18-7.94v12.75q4.43,2.06,9,4.12l4.85-3.85,2.24,7q4.42,1.91,9,3.8l4.49-8.37.73,10.51,3,1.21c2.23-2.82,6.29-5,13.53-2.06,6.85,2.82,12.75,8.36,17,13.24q6.62,2.22,13.39,4.28l9.86-7.73L157.86,395l3.66,1,6.38-6.47,6.69,9.6c1.17.26,2.34.53,3.52.78l8.73-17.15,9.43,20.6q2.79.47,5.58.88l3.36-23.86,17.91,24.78,9-19.36,5.51,21.78h.17L250,384.36l12.35,20.71L271,390.75l7.86,10s-1.41-15.18,12.26-8.83c12,5.58,17.31,9.35,18.4,10.17l.21,0c-.11-2.18-.89-21.61,9.42-16a187.79,187.79,0,0,0,23.14,10l2.46-.52c.67-3.59,3.43-13.36,13.7-13.91a15.27,15.27,0,0,1,14.34,7.47l3.23-.81,3.6-11.37,9.94,7.89,3.25-.87V366l14.63,13.94,3.59-1V354.86l8.48,21.59,3.49-1,5.39-13.19,12.22,7.84,4.66-1.47c.4-.83.79-1.68,1.18-2.53l3.66-11.89.76,1.71a215.85,215.85,0,0,0,15.7-81.06c0-119.59-97-216.54-216.54-216.54s-216.54,97-216.54,216.54a216.1,216.1,0,0,0,14.46,77.94Z"/><path class="cls-5" d="M161.52,395.91l-3.66-1,1.7,2.95Z"/><path class="cls-5" d="M378.48,424.61c1-.36,2-.73,3-1.1l-.39-6-22.83,1.12L369,427.42C372.48,426.54,375.66,425.61,378.48,424.61Z"/><path class="cls-5" d="M72.52,364.33q-4.62-2.07-9-4.12v11.3Z"/><path class="cls-5" d="M88.61,371.25q-4.58-1.89-9-3.8l4.14,12.84Z"/><path class="cls-5" d="M443.56,372c.57-1.12,1.13-2.24,1.68-3.38l-4.66,1.47Z"/><path class="cls-5" d="M153.34,433.79l4.63-9.11,9.65,11.2a588.59,588.59,0,0,0,66.62,4.49s75.7-1.41,122.54-10.28l-3-11.21-116.12,5.68L146.52,416l-.45,16.55Q149.7,433.2,153.34,433.79Z"/><path class="cls-5" d="M102.64,411.84l-15-1.42a58.27,58.27,0,0,0,11.52,7.67Z"/><path class="cls-5" d="M111.77,423.56l5-10.39-9.78-.92v9.45C108.54,422.35,110.13,423,111.77,423.56Z"/><path class="cls-5" d="M135.41,430.33l8.56-14.6-16.2-1.52v14.28Q131.54,429.47,135.41,430.33Z"/><path class="cls-5" d="M397.2,416.75l-6.6.32.94,2.31C393.46,418.52,395.34,417.65,397.2,416.75Z"/><path class="cls-5" d="M423,375.42l-3.49,1,1.5,3.84Z"/><path class="cls-5" d="M47.92,352.77c.67,1.74,1.37,3.47,2.08,5.19l3.29-2.56Z"/><path class="cls-5" d="M140.75,390.06Q134,388,127.36,385.78a72.08,72.08,0,0,1,6.92,9.36Z"/><path class="cls-5" d="M237.77,407.49h-.17l.05.22Z"/><path class="cls-5" d="M309.7,402.09l-.21,0,.23.18S309.71,402.22,309.7,402.09Z"/><path class="cls-5" d="M392.78,384l-3.25.87,3.25,2.57Z"/><path class="cls-5" d="M411,378.91l-3.59,1,3.59,3.41Z"/><path class="cls-5" d="M344.72,395.56l-2.46.52,2.26.8S344.57,396.38,344.72,395.56Z"/><path class="cls-5" d="M376,388.31l-3.23.81a16.92,16.92,0,0,1,1.79,3.75Z"/><path class="cls-5" d="M178.11,399.82c-1.18-.25-2.35-.52-3.52-.78l2.26,3.26Z"/><path class="cls-5" d="M96.86,374.6l-3-1.21.47,6.9A13.9,13.9,0,0,1,96.86,374.6Z"/><path class="cls-5" d="M201.85,404.15q-2.79-.42-5.58-.88l4.36,9.52Z"/><path class="cls-5" d="M446.42,366.07q2.34-5,4.42-10.18l-.76-1.71Z"/><path class="cls-5" d="M428.36,362.23,423,375.42l-2,4.87-1.5-3.84L411,354.86v28.48l-3.59-3.41L392.78,366V387.4l-3.25-2.57-9.94-7.89L376,388.31l-1.44,4.56a16.92,16.92,0,0,0-1.79-3.75,15.27,15.27,0,0,0-14.34-7.47c-10.27.55-13,10.32-13.7,13.91-.15.82-.2,1.32-.2,1.32l-2.26-.8a187.79,187.79,0,0,1-23.14-10c-10.31-5.57-9.53,13.86-9.42,16,0,.13,0,.21,0,.21l-.23-.18c-1.09-.82-6.37-4.59-18.4-10.17-13.67-6.35-12.26,8.83-12.26,8.83l-7.86-10-8.62,14.32L250,384.36l-12.23,23.13-.12.22-.05-.22-5.51-21.78-9,19.36-17.91-24.78-3.36,23.86-1.22,8.64-4.36-9.52-9.43-20.6-8.73,17.15-1.26,2.48L174.59,399l-6.69-9.6-6.38,6.47-2,2-1.7-2.95-7.25-12.62-9.86,7.73-6.47,5.08a72.08,72.08,0,0,0-6.92-9.36c-4.22-4.88-10.12-10.42-17-13.24-7.24-3-11.3-.76-13.53,2.06a13.9,13.9,0,0,0-2.56,5.69l-.47-6.9-.73-10.51-4.49,8.37-4.86,9-4.14-12.84-2.24-7-4.85,3.85-9,7.18V347.46L53.29,355.4,50,358a215.52,215.52,0,0,0,17.22,33l4.66-4.56-.74,8.85a60.31,60.31,0,0,1,12.61,11.21,35.3,35.3,0,0,0,3.9,3.94l15,1.42L107,404v8.27l9.78.92,11-22.82v23.86l16.2,1.52,2.68-4.56-.13,4.8,91.13,8.59,116.12-5.68-1.34-5,5.86,4.77,22.83-1.12-1.8-28,11.28,27.49,6.6-.32.61-.3v-23l16.32,14.4c3.95-2.21,7.82-4.44,11.65-6.61l3.43-9.09,1.18,2.51A216.17,216.17,0,0,0,443.56,372l-3-1.91Z"/><path class="cls-13" d="M127.77,428.49V390.35l-11,22.82-5,10.39C116.79,425.4,122.16,427,127.77,428.49Z"/><path class="cls-13" d="M369,427.42l-10.74-8.76-5.86-4.77,1.34,5,3,11.21C361.14,429.27,365.26,428.38,369,427.42Z"/><path class="cls-13" d="M153.34,433.79c4.77.79,9.55,1.48,14.28,2.09L158,424.68Z"/><path class="cls-13" d="M391.54,419.38l-.94-2.31-11.28-27.49,1.8,28,.39,6Q386.68,421.56,391.54,419.38Z"/><path class="cls-13" d="M107,421.7V404l-4.35,7.86-3.47,6.25C101.62,419.37,104.24,420.57,107,421.7Z"/><path class="cls-13" d="M146.07,432.52l.45-16.55.13-4.8L144,415.73l-8.56,14.6Q140.67,431.52,146.07,432.52Z"/><path class="cls-13" d="M397.81,393.44v23c5.67-2.75,11.08-5.67,16.32-8.61Z"/><path class="cls-13" d="M425.78,401.23l.09-.05q2.31-3.23,4.52-6.53l-1.18-2.51Z"/><path class="cls-13" d="M71.88,386.42,67.22,391c.64,1,1.3,2,2,3,.66.42,1.31.85,2,1.29Z"/><path class="cls-13" d="M414.13,407.84c-5.24,2.94-10.65,5.86-16.32,8.61l-.61.3c-1.86.9-3.74,1.77-5.66,2.63q-4.86,2.17-10,4.13c-1,.37-2,.74-3,1.1-2.82,1-6,1.93-9.45,2.81-3.77,1-7.89,1.85-12.25,2.67-46.84,8.87-122.54,10.28-122.54,10.28a588.59,588.59,0,0,1-66.62-4.49c-4.73-.61-9.51-1.3-14.28-2.09q-3.65-.6-7.27-1.27-5.38-1-10.66-2.19-3.87-.87-7.64-1.84c-5.61-1.46-11-3.09-16-4.93-1.64-.6-3.23-1.21-4.78-1.86-2.75-1.13-5.37-2.33-7.82-3.61a58.27,58.27,0,0,1-11.52-7.67,35.3,35.3,0,0,1-3.9-3.94,60.31,60.31,0,0,0-12.61-11.21c-.65-.44-1.3-.87-2-1.29a217.49,217.49,0,0,0,65.94,64.42c11.21.71,22.21,1.63,32.78,2.67a84,84,0,0,0,18.29-3.59c44.63-14.57,77.4,5,77.4,5s20.33-31.39,51.28-22.9c10.42,2.86,23.28,5,35.66,7.14,15-4.24,29.24-7.25,40-7.13a217.91,217.91,0,0,0,35.35-38.39l-.09.05C422,403.4,418.08,405.63,414.13,407.84Z"/><path class="cls-14" d="M267.91,472.23c11.71-.55,49.14-16.09,82.62-25.53-12.38-2.18-25.24-4.28-35.66-7.14-30.95-8.49-51.28,22.9-51.28,22.9s-32.77-19.55-77.4-5a84,84,0,0,1-18.29,3.59C216,465.79,255.36,472.83,267.91,472.23Z"/><path class="cls-15" d="M350.53,446.7c-33.48,9.44-70.91,25-82.62,25.53-12.55.6-52-6.44-100-11.16-10.57-1-21.57-2-32.78-2.67a215.28,215.28,0,0,0,36.6,18.38A548.67,548.67,0,0,1,232.09,478c26,2,49.46,4.53,70.68,6.93a215.77,215.77,0,0,0,87.75-45.31C379.77,439.45,365.55,442.46,350.53,446.7Z"/><path class="cls-16" d="M171.72,476.78a217.49,217.49,0,0,0,131,8.1c-21.22-2.4-44.68-4.89-70.68-6.93A548.67,548.67,0,0,0,171.72,476.78Z"/></g></svg>