<svg xmlns="http://www.w3.org/2000/svg" viewBox="0 0 500 500"><defs><style>.cls-1,.cls-13,.cls-15,.cls-16{fill:#deac2f;}.cls-2{fill:#350ff2;}.cls-3{fill:#181f70;}.cls-14,.cls-17,.cls-4,.cls-5,.cls-7,.cls-8,.cls-9{fill:none;}.cls-4,.cls-7,.cls-8,.cls-9{stroke:#76aad2;}.cls-13,.cls-14,.cls-15,.cls-16,.cls-4,.cls-7,.cls-8,.cls-9{stroke-miterlimit:10;}.cls-5{stroke:#071859;stroke-width:1.48px;}.cls-6{fill:#071859;}.cls-7{stroke-width:0.83px;}.cls-8{stroke-width:0.77px;}.cls-9{stroke-width:0.79px;}.cls-10,.cls-11{fill:#76aad2;}.cls-10{fill-rule:evenodd;}.cls-12{fill:#8c7e41;}.cls-13,.cls-15,.cls-16{stroke:#deac2f;}.cls-13{stroke-width:0.19px;}.cls-14{stroke:#c8a557;stroke-width:0.15px;}.cls-15{stroke-width:0.19px;}.cls-16{stroke-width:0.17px;}.cls-18{fill:#17356d;}.cls-19{fill:#1f265d;}.cls-20{fill:#0c0959;}.cls-21{fill:#001321;}</style></defs><title>kinevologo-dl-blank</title><g id="Layer_1" data-name="Layer 1"><circle class="cls-1" cx="250" cy="259.41" r="216.54"/><circle class="cls-2" cx="250" cy="274.83" r="216.54"/><path class="cls-3" d="M322.49,331l-3.37.32C320.13,331.26,321.26,331.15,322.49,331Z"/><line class="cls-4" x1="503.75" y1="188.29" x2="484.44" y2="188.29"/><line class="cls-4" x1="482.87" y1="188.29" x2="480.77" y2="188.29"/><line class="cls-4" x1="479.2" y1="188.29" x2="478.15" y2="188.29"/><line class="cls-4" x1="503.75" y1="185.73" x2="481.82" y2="185.73"/><line class="cls-4" x1="442.74" y1="66.73" x2="423.43" y2="66.73"/><line class="cls-4" x1="421.86" y1="66.73" x2="419.76" y2="66.73"/><line class="cls-4" x1="418.18" y1="66.73" x2="417.13" y2="66.73"/><line class="cls-4" x1="449.15" y1="66.73" x2="447.05" y2="66.73"/><line class="cls-4" x1="445.48" y1="66.73" x2="444.43" y2="66.73"/><line class="cls-4" x1="442.74" y1="64.17" x2="420.81" y2="64.17"/><line class="cls-4" x1="487.62" y1="176.57" x2="490.92" y2="179.87"/><line class="cls-4" x1="490.92" y1="176.57" x2="487.62" y2="179.87"/><line class="cls-4" x1="409.28" y1="64.17" x2="412.57" y2="67.47"/><line class="cls-4" x1="412.57" y1="64.17" x2="409.28" y2="67.47"/><line class="cls-4" x1="79.61" y1="82.89" x2="60.3" y2="82.89"/><line class="cls-4" x1="86.02" y1="82.89" x2="83.92" y2="82.89"/><line class="cls-4" x1="82.35" y1="82.89" x2="81.3" y2="82.89"/><line class="cls-4" x1="79.61" y1="80.33" x2="57.68" y2="80.33"/><line class="cls-4" x1="46.15" y1="80.33" x2="49.45" y2="83.63"/><line class="cls-4" x1="49.45" y1="80.33" x2="46.15" y2="83.63"/><line class="cls-4" x1="14.1" y1="182.43" x2="-5.21" y2="182.43"/><line class="cls-4" x1="20.52" y1="182.43" x2="18.41" y2="182.43"/><line class="cls-4" x1="16.84" y1="182.43" x2="15.79" y2="182.43"/><line class="cls-4" x1="14.1" y1="179.87" x2="-7.83" y2="179.87"/><circle class="cls-4" cx="86.63" cy="40.75" r="1.66"/><line class="cls-4" x1="13.59" y1="81.71" x2="13.59" y2="83.81"/><line class="cls-4" x1="13.59" y1="85.38" x2="13.59" y2="86.43"/><path class="cls-4" d="M5.8,76.73a1.66,1.66,0,1,1-1.66-1.66A1.66,1.66,0,0,1,5.8,76.73Z"/><line class="cls-4" x1="38.05" y1="19.38" x2="18.74" y2="19.38"/><line class="cls-4" x1="44.47" y1="19.38" x2="42.37" y2="19.38"/><line class="cls-4" x1="40.8" y1="19.38" x2="39.75" y2="19.38"/><path class="cls-4" d="M497.24,120.08a1.66,1.66,0,1,1-1.66-1.66A1.66,1.66,0,0,1,497.24,120.08Z"/><path class="cls-1" d="M142.38,122.25h14.37v34.88h.34l33.74-34.88h19.38l-37.73,37.27L212.72,203H192.54l-35.45-40.47h-.34V203H142.38Z"/><path class="cls-1" d="M293,122.25h16.07l22.23,62.13h.46l22.46-62.13h15.5L337.32,203H324.9Z"/><g id="layer1"><path id="path5091" class="cls-5" d="M399.47,405.56C399.47,321,332.52,250,250,250S100.53,320.4,100.53,404.94"/><path id="path5093" class="cls-6" d="M280.88,405.93l-.24-9.27h76a33.7,33.7,0,0,0,.64,4,37.1,37.1,0,0,0,1.3,5.25H280.88"/><path id="path5095" class="cls-6" d="M278.35,387.39a33.28,33.28,0,0,0-1.69-3.62c-1.31-2.48-2.29-4.1-2.29-4.1h81.3v7.72H278.35"/><path id="path5097" class="cls-6" d="M364.7,372.56a51.58,51.58,0,0,1-4.65-4.95c-1.94-2.47-3.56-4.32-3.56-4.32H143.33a17.41,17.41,0,0,1-2.76,4.32c-2.29,2.63-4.4,4.95-4.4,4.95h98.06a26.65,26.65,0,0,1,17.05-6.49,24.29,24.29,0,0,1,16.26,6.49H364.7"/><path id="path5099" class="cls-6" d="M224,387.39s.5-1.09,1.46-3.25a44.78,44.78,0,0,1,2.44-4.47H144.62v7.72H224"/><path id="path5101" class="cls-6" d="M221.52,396.66l-.8,9.58H140.4a45.34,45.34,0,0,0,1.79-4.78,39.51,39.51,0,0,0,1.14-4.8h78.19"/><path id="path5105" class="cls-6" d="M147.72,358h14.8a64.87,64.87,0,0,1-3.59-7.11c-.82-2.32-2-6.18-2-6.18h-4a46.64,46.64,0,0,1-2,6c-1.28,3.24-3.24,7.26-3.24,7.26"/><path id="path5107" class="cls-6" d="M174.06,358l4.39-13.29H335.59s.49.85,1.31,2.09,2.28,3.63,2.28,3.63.81-1.78,1.39-3.4c.38-1.15.79-2.32.79-2.32h5.19a40.36,40.36,0,0,0,2.46,6.42c1.76,3.72,3.58,6.87,3.58,6.87H174.06"/><path id="path5109" class="cls-6" d="M317.3,340.42H333s-1.38-2.78-2.67-6a53.3,53.3,0,0,1-2-5.72H322s-.83,2.78-2,5.72-2.77,6-2.77,6"/><path id="path5111" class="cls-6" d="M323.31,323.56h3.76l-2-8.18-1.8,8.18"/><path id="path5113" class="cls-6" d="M342.58,340.88h2.94L344,335.31l-1.39,5.57"/><path id="path5115" class="cls-6" d="M344.3,329.75v-2.46l-7.64,1.38,7.64,1.08"/><path id="path5117" class="cls-6" d="M175.92,328.36H204.7l-1.2,3.09h-1.63v4.32l2.92,2.79a20.3,20.3,0,0,0,4.06-4.95,46.62,46.62,0,0,0,2.93-5.25h94.46s-.31.62,1.63,4.63a40.37,40.37,0,0,0,4.87,7.43H177.88l1.47-4.65-.08-4.25h-2l-1.31-3.16"/><path id="path5119" class="cls-6" d="M213.89,323.42a30.87,30.87,0,0,0,2-5.57c.82-3.25,1.95-7,1.95-7s.81,3.55,2,7,2.11,5.57,2.11,5.57h-8"/><path id="path5121" class="cls-6" d="M228.85,323.42a12.79,12.79,0,0,0,1.79-7.11,14.64,14.64,0,0,0-1.79-7.42h58s.68,1.69,2.45,6.34a88.78,88.78,0,0,0,3.57,8.19H228.85"/><path id="path5123" class="cls-6" d="M298.11,323.42h8.46l3.57-3.87a65.65,65.65,0,0,1-2.92-6.48c-1.14-3.1-1.63-4.18-1.63-4.18H298s-1,2.47-2,5.1a37.88,37.88,0,0,1-2.75,5.56l4.87,3.87"/><path id="path5125" class="cls-6" d="M299.08,305h5.3l-2.68-11.67L299.08,305"/><path id="path5127" class="cls-6" d="M325,308v-4l-7.65,1.86L325,308"/><path id="path5129" class="cls-6" d="M301.7,289.57v-4l-7.65,1.86,7.65,2.16"/><path id="path5131" class="cls-6" d="M226.56,305.18h59.52s-2-6.18-2.11-10.05-.17-7.1-.17-7.1l-3.08-1.55v-3.56l-20.2,0-.14,3.59-2.44,1.24v2.62s.51,2.16-2.26,2.16-4.56-6.32-4.56-6.32l-4.71,13.59a4.37,4.37,0,0,1-4.06,2.78c-1.71,0-2.49-.76-2.44-1.85.08-1.78,2.67-2.09,2.67-2.09a45.09,45.09,0,0,1-2.85-5.8,65.11,65.11,0,0,1-3-10h-4.38s-2.19,7.73-3.17,10-2.93,6-2.93,6,4.07-.39,4.07,1.93a2,2,0,0,1-2.28,1.85,33.86,33.86,0,0,0-4.15.08l2.67,2.55"/><path id="path5133" class="cls-6" d="M233.33,278.45h2.2l-1.06-5.26-1.14,5.26"/><path id="path5135" class="cls-6" d="M234.37,267.63v-4l-7.64,1.86,7.64,2.16"/><path id="path5137" class="cls-6" d="M269.18,211.38v-4l-7.65,1.86,7.65,2.16"/><path id="path5139" class="cls-6" d="M260.56,278.6h20.16V269l3.58-1.24v-3.24l-3.58-1.39V254.5H260.56v8.65L257,264.38v3.4l3.74,1.24-.16,9.58"/><path id="path5141" class="cls-6" d="M189.83,294.83v-4l-7.64,1.86,7.64,2.17"/><path id="path5143" class="cls-6" d="M178.29,323.25h23.4s-3.57-5.4-5.36-8.5a51,51,0,0,1-2.92-6h-6.66s-.5.91-3.42,6-5,8.5-5,8.5"/><path id="path5145" class="cls-6" d="M188,305.18h3.75L190,300.4l-2,4.78"/><path id="path5147" class="cls-6" d="M155,332.54v-4l-7.65,1.86,7.65,2.17"/><path id="path5149" class="cls-6" d="M153.73,340.42h2.6l-1.3-2.95-1.3,2.95"/><path id="path5151" class="cls-6" d="M254.88,251.1h31.2s-4.87-7.11-8.76-14.23a141.27,141.27,0,0,1-7.5-17s-3.56,8.66-7.49,17.31a100.74,100.74,0,0,1-7.45,13.91"/></g><line class="cls-7" x1="217.96" y1="210.48" x2="119.6" y2="210.48"/><line class="cls-7" x1="111.6" y1="210.48" x2="100.89" y2="210.48"/><line class="cls-7" x1="92.89" y1="210.48" x2="87.54" y2="210.48"/><line class="cls-7" x1="250.64" y1="210.48" x2="239.93" y2="210.48"/><line class="cls-7" x1="231.93" y1="210.48" x2="226.58" y2="210.48"/><line class="cls-7" x1="217.96" y1="207.07" x2="106.25" y2="207.07"/><line class="cls-8" x1="386.38" y1="207.67" x2="307.89" y2="207.67"/><line class="cls-8" x1="301.51" y1="207.67" x2="292.96" y2="207.67"/><line class="cls-8" x1="286.58" y1="207.67" x2="282.31" y2="207.67"/><line class="cls-8" x1="412.46" y1="207.67" x2="403.92" y2="207.67"/><line class="cls-8" x1="397.53" y1="207.67" x2="393.26" y2="207.67"/><line class="cls-8" x1="386.38" y1="211.33" x2="297.23" y2="211.33"/><line class="cls-9" x1="218.16" y1="25.97" x2="180.24" y2="25.97"/><line class="cls-9" x1="177.16" y1="25.97" x2="173.03" y2="25.97"/><line class="cls-9" x1="169.95" y1="25.97" x2="167.88" y2="25.97"/><line class="cls-9" x1="230.76" y1="25.97" x2="226.63" y2="25.97"/><line class="cls-9" x1="223.55" y1="25.97" x2="221.48" y2="25.97"/><line class="cls-9" x1="218.16" y1="22.4" x2="175.09" y2="22.4"/><line class="cls-9" x1="275.77" y1="22.4" x2="237.85" y2="22.4"/><line class="cls-9" x1="234.77" y1="22.4" x2="230.64" y2="22.4"/><line class="cls-9" x1="227.56" y1="22.4" x2="225.49" y2="22.4"/><line class="cls-9" x1="288.37" y1="22.4" x2="284.24" y2="22.4"/><line class="cls-9" x1="281.16" y1="22.4" x2="279.1" y2="22.4"/><line class="cls-9" x1="275.77" y1="25.97" x2="232.7" y2="25.97"/><path class="cls-10" d="M299.73,19.35c-5.17-.49-8.21-8.15-9.2-13.77C294.71,9,300.22,16.43,299.73,19.35Z"/><path class="cls-10" d="M299.73,19.35c-5.17-.49-8.21-8.15-9.2-13.77C294.71,9,300.22,16.43,299.73,19.35Z"/><path class="cls-10" d="M297.14,17.8a2,2,0,0,0-2,2c0,1,1.05,1.76,2,2,1.06,0,2.25.14,2-2A2.06,2.06,0,0,0,297.14,17.8Z"/><path class="cls-10" d="M297.14,17.8a2,2,0,0,0-2,2c0,1,1.05,1.76,2,2,1.06,0,2.25.14,2-2A2.06,2.06,0,0,0,297.14,17.8Z"/><path class="cls-10" d="M304.52,6c1.54,3.25-2.6,12.47-5.28,12.62C301.24,14.43,302.73,10,304.52,6Z"/><path class="cls-10" d="M304.52,6c1.54,3.25-2.6,12.47-5.28,12.62C301.24,14.43,302.73,10,304.52,6Z"/><path class="cls-10" d="M299.65,12.78c-.85.18-1.63.65-1.5,1.19Z"/><line class="cls-11" x1="299.6" y1="13.04" x2="298.14" y2="14.61"/><line class="cls-11" x1="299.24" y1="13.62" x2="298.41" y2="14.7"/><path class="cls-10" d="M299.52,17.24c-.38,0-.64-.41-.57-1.09l-.14,0L299,15l.41,1.46a3.64,3.64,0,0,1,.95-2.34l.29.45.19-.8L302,16.31l.39-.51.26-.14.64-1.6.18,1.74.17.32a1.07,1.07,0,0,1-.62.82c0,1-.28,1.57-1,1.73A1.86,1.86,0,0,1,299.52,17.24Z"/><path class="cls-10" d="M300.47,18.8a.23.23,0,0,0-.07-.07.47.47,0,0,0-.2-.12s-.17,0-.18,0,.17,0,.18,0a.54.54,0,0,1,.22.13l0,0s.17.12.14.14S300.51,18.85,300.47,18.8Z"/><path class="cls-10" d="M300.44,18.78l-.05,0a.43.43,0,0,0-.2-.11.31.31,0,0,0-.19,0,.13.13,0,0,0-.08,0s-.05.06-.07.05,0-.09,0-.1l.09-.08a.46.46,0,0,1,.26,0,.5.5,0,0,1,.28.12.19.19,0,0,1,.07.06c.05.06.17.21.05.24S300.5,18.85,300.44,18.78Z"/><path class="cls-10" d="M300.45,18.73l0,0a.8.8,0,0,0-.22-.13l-.15,0-.07,0,0,0s0,0,0,0a.33.33,0,0,1,.24,0,.63.63,0,0,1,.27.1l.09.07s.15.19,0,.21,0,0,0,0,.05,0,0-.07A.69.69,0,0,1,300.45,18.73Z"/><path class="cls-10" d="M299.56,16.72a5.6,5.6,0,0,1,.83-2.6c.17.38.11.62.35.76.05-.29.08-.83.13-1.11.22.92,1,2,1.09,2.74.39,0,.59-.39.73-.85l-.11.48c.41-.1.75-1,.74-1.68.05.35,0,1.26.09,1.61.27,0,.54-.36.8-.85l-.27.62c.56-.32,1.05-.68.62-1.49.23-.29-.19-.7-.76-.93.07-.13.45,0,.52-.17A2.76,2.76,0,0,1,302,12.5c.78.29.73-.91.69-1.56l-.34.34c.09-.75-.12-1-.47-1.1l0,.55c-.35-.76-1.15-1-2-.05l.12-.37c-.41.25-.58.43-.65.67l-.11.51a.88.88,0,0,0,.68,1.33c-.92,1.07-1.47,2.16-1,3.3l.3-1A1.43,1.43,0,0,0,299.56,16.72Z"/><path class="cls-10" d="M299.72,12.89a1.32,1.32,0,0,1,2.35-.34A2,2,0,0,0,299.72,12.89Z"/><path class="cls-10" d="M302.33,17.34c-.15-.56.51-.67.65-.71C303.08,17,302.71,17.18,302.33,17.34Z"/><path class="cls-10" d="M302.33,17.34c.17-.11.53-.16.39-.38s-.31,0-.36,0A.38.38,0,0,0,302.33,17.34Z"/><path class="cls-10" d="M302.58,17.1c.06,0,.1,0,.1.07s-.31.16-.29.12S302.52,17.09,302.58,17.1Z"/><path class="cls-10" d="M302.3,17.36c-.18-.5.51-.76.89-.79"/><line class="cls-11" x1="302.75" y1="16.65" x2="302.74" y2="16.5"/><line class="cls-11" x1="302.85" y1="16.61" x2="302.83" y2="16.48"/><line class="cls-11" x1="302.96" y1="16.58" x2="302.95" y2="16.46"/><line class="cls-11" x1="303.07" y1="16.55" x2="303.07" y2="16.44"/><path class="cls-10" d="M300.47,18.8a.23.23,0,0,0-.07-.07.47.47,0,0,0-.2-.12s-.17,0-.18,0,.17,0,.18,0a.54.54,0,0,1,.22.13l0,0s.17.12.14.14S300.51,18.85,300.47,18.8Z"/><path class="cls-10" d="M300.44,18.78l-.05,0a.43.43,0,0,0-.2-.11.31.31,0,0,0-.19,0,.13.13,0,0,0-.08,0s-.05.06-.07.05,0-.09,0-.1l.09-.08a.46.46,0,0,1,.26,0,.5.5,0,0,1,.28.12.19.19,0,0,1,.07.06c.05.06.17.21.05.24S300.5,18.85,300.44,18.78Z"/><path class="cls-10" d="M300.45,18.73l0,0a.8.8,0,0,0-.22-.13l-.15,0-.07,0,0,0s0,0,0,0a.33.33,0,0,1,.24,0,.63.63,0,0,1,.27.1l.09.07s.15.19,0,.21,0,0,0,0,.05,0,0-.07A.69.69,0,0,1,300.45,18.73Z"/><path class="cls-10" d="M301.13,17.3c-.15-.65-.47-1-.88-.89"/><line class="cls-11" x1="300.25" y1="16.36" x2="300.16" y2="16.21"/><line class="cls-11" x1="300.36" y1="16.35" x2="300.24" y2="16.16"/><line class="cls-11" x1="300.63" y1="16.39" x2="300.63" y2="16.08"/><line class="cls-11" x1="300.55" y1="16.36" x2="300.49" y2="16.12"/><line class="cls-11" x1="300.44" y1="16.34" x2="300.38" y2="16.12"/><path class="cls-10" d="M301.1,17.31c-.19-.54-.29-1-.83-.87C300.31,16.63,300.31,17.51,301.1,17.31Z"/><path class="cls-10" d="M301.1,17.31a1.57,1.57,0,0,0-.19-.51c-.3-.07-.32-.26-.51.18a.49.49,0,0,0,.38.34A.88.88,0,0,0,301.1,17.31Z"/><ellipse class="cls-11" cx="300.81" cy="17.18" rx="0.14" ry="0.11"/><path class="cls-10" d="M302,16.77c-.22.44.2,1.06-.15,1.2h0a.36.36,0,0,1-.36-.17h0"/><path class="cls-10" d="M299.87,18.07c0,.24-.07.45-.15.39-1.25-.28-2.7.48-3.8.73-1-.71-2.46-.87-3.06-1.28-.2-.26-.12-.92-.28-1.22a2.53,2.53,0,0,0-1.11-.84c-.24-.15-.38,0-.32.64a2.27,2.27,0,0,1,.53,1,1.05,1.05,0,0,0,.47.88,31.79,31.79,0,0,0,3.38,2.23c.7,0,2.09-.65,2.93-.71l.2.9c.46-1,2-1.33,2.4-.51l.38,0c0-.23.22-.27.52-.22l-.31-.5c.25.63,1.46.92,2.61,1.32a13.26,13.26,0,0,0,3.42-2.19c.17-.07.43-.65.74-.87q-.09-.18-.42,0c.16-.39.52-1.34.16-1.23a2.2,2.2,0,0,0-1.54,2.13,21.83,21.83,0,0,0-2.39.89,23.89,23.89,0,0,1-2.18-1A1.92,1.92,0,0,1,299.87,18.07Z"/><line class="cls-11" x1="307.49" y1="17.56" x2="308.16" y2="16.65"/><line class="cls-11" x1="307.22" y1="17.58" x2="307.77" y2="16.81"/><line class="cls-11" x1="307.83" y1="17.51" x2="308.3" y2="16.72"/><line class="cls-11" x1="292.48" y1="16.93" x2="292.01" y2="16.53"/><line class="cls-11" x1="291.9" y1="16.69" x2="291.24" y2="15.82"/><line class="cls-11" x1="291.74" y1="16.77" x2="291.15" y2="16.02"/><line class="cls-11" x1="291.6" y1="16.87" x2="291.14" y2="16.28"/><path class="cls-10" d="M298.67,20.81a5.7,5.7,0,0,1,.06,1.4c-.72.78-2.14,1.93-2.23,3.25a5,5,0,0,1-.64,1.13,2,2,0,0,0,1.64-.12,2.48,2.48,0,0,0,2,.3,7.33,7.33,0,0,1-.18-1.68,5.74,5.74,0,0,1,2.14.36,2.22,2.22,0,0,0-.56-1.23l1.49.39a7,7,0,0,0-1.88-1.09.94.94,0,0,1,.05-.83c.8-1.07,1.87-2,1.4-2.57"/><path class="cls-10" d="M299.15,20.21c-.45.22-.49.6-.41,1.35a1.74,1.74,0,0,1,0,.65c-.72.78-2.14,1.93-2.23,3.25a5,5,0,0,1-.64,1.13,2,2,0,0,0,1.64-.12,2.48,2.48,0,0,0,2,.3,7.33,7.33,0,0,1-.18-1.68,5.74,5.74,0,0,1,2.14.36,2.22,2.22,0,0,0-.56-1.23l1.49.39a7,7,0,0,0-1.88-1.09.94.94,0,0,1,.05-.83c.8-1.07,1.87-2,1.4-2.57-.3-.05-.51,0-.52.22l-.38,0C300.8,19.68,299.81,19.72,299.15,20.21Z"/><path class="cls-10" d="M299.15,20.21c-.45.22.12.42.21,1.17a4.55,4.55,0,0,1-.08,1c-3.4,3.31.16,2.58,0,2.31.49.12.58-.16,1.53.27a1.2,1.2,0,0,0-.37-.94l1,.1c-.54-.18-1.6.07-2.3-.63-.05-.89,1.4-2.36,1-2.72C300.14,19.94,299.81,19.72,299.15,20.21Z"/><path class="cls-10" d="M302.39,24.61a3.52,3.52,0,0,1,1.71,2.24,18.9,18.9,0,0,1-1.82,1.85c-1.62,1.81-3,4.07-4.17,5.61-.31.36-.44.3-.32-.23a2.64,2.64,0,0,1,.55-1.93l.38-.61c.88-3,2-4.88,3.51-5.06l-1.48.58-1.21-.47-1.06.25c0,.47.53,1.17,1.28,1.91m.08,3.08v.23a12,12,0,0,0,.18,4,1.26,1.26,0,0,1,0,1v.13A3.42,3.42,0,0,0,300,39a1.44,1.44,0,0,0,.39.81l.56-2.23a20.72,20.72,0,0,1,1.81-7.15,3.51,3.51,0,0,0-.45-1.76"/><path class="cls-10" d="M298.34,32.15l-.8,0a13.17,13.17,0,0,0-.43,2.39c-.17.57-.1.87.13,1a1,1,0,0,0,.53-1"/><path class="cls-10" d="M300,37.24l-.65.13a3.46,3.46,0,0,0,.1,1.32c.12.25.13,2.67.63,2,.17-.07.34-.92.34-.92"/><path class="cls-10" d="M300.82,18.13a1.53,1.53,0,0,0,1.19.19C301.62,18.76,301,18.8,300.82,18.13Z"/><path class="cls-10" d="M301.1,18.34a.77.77,0,0,0,.6.1.4.4,0,0,1-.34.15A.35.35,0,0,1,301.1,18.34Z"/><path class="cls-10" d="M299.33,37.37a3.46,3.46,0,0,0,.1,1.32c.12.25.13,2.67.63,2,.17-.07.34-.92.34-.92A1.44,1.44,0,0,1,300,39a3.42,3.42,0,0,1,0-1.74Z"/><path class="cls-10" d="M299.84,40a1.26,1.26,0,0,0,.05.33.65.65,0,0,1,.05.2s0,.15,0,.16.15-.11.15-.21a.45.45,0,0,1,0-.19s.08-.1,0-.14a1.42,1.42,0,0,0-.18-.08.74.74,0,0,1-.12-.13C299.84,39.86,299.79,40,299.84,40Z"/><path class="cls-10" d="M299.91,40.09a1.36,1.36,0,0,0,0,.21.28.28,0,0,1,0,.13s0,.09,0,.09.09-.06.09-.13a.24.24,0,0,1,0-.12s.05-.05,0-.08-.08,0-.11-.06l-.08-.07S299.87,40.11,299.91,40.09Z"/><path class="cls-10" d="M299.42,37.58c0,.26.1.44.1.69,0,.09,0,.17.07.17s.13-.23.18-.3a1.55,1.55,0,0,0,0-.57c0-.09-.12-.12-.2-.12S299.44,37.51,299.42,37.58Z"/><path class="cls-10" d="M299.53,37.78c0,.12,0,.2,0,.31s0,.08,0,.08.06-.11.09-.14a1.09,1.09,0,0,0,0-.26.1.1,0,0,0-.1-.06C299.54,37.71,299.53,37.74,299.53,37.78Z"/><path class="cls-10" d="M297.54,32.13a13.17,13.17,0,0,0-.43,2.39c-.17.57-.1.87.13,1a1,1,0,0,0,.53-1s0-.19,0-.43a2.64,2.64,0,0,1,.55-1.93Z"/><path class="cls-10" d="M297.36,34.61a1.16,1.16,0,0,0,0,.42c0,.1,0,.15.1.15s.07-.06.07-.13a2.25,2.25,0,0,0,0-.26Z"/><path class="cls-10" d="M297.39,34.79a.38.38,0,0,0,0,.15s0,.06,0,.06,0,0,0,0,0-.08,0-.09Z"/><path class="cls-10" d="M297.52,33.39a.78.78,0,0,0,.13-.3c0-.08.09-.16.12-.21s0-.1.08-.16.1-.08.1-.17.23-.24-.08-.24c-.15,0-.21,0-.26.12A4,4,0,0,0,297.52,33.39Z"/><path class="cls-10" d="M297.61,33a.67.67,0,0,0,.07-.18s.05-.09.07-.12,0-.06.05-.09.05,0,.05-.1.13-.14-.05-.14-.12,0-.15.07A2.46,2.46,0,0,0,297.61,33Z"/><path class="cls-10" d="M301.47,20.85c.13,0,.34-.36.34-.42s0-.22-.12-.19-.26.22-.28.24S301.34,20.85,301.47,20.85Z"/><path class="cls-10" d="M301.52,20.69c.06,0,.09-.13.11-.15s.1-.18,0-.17-.16.11-.17.13S301.45,20.69,301.52,20.69Z"/><path class="cls-10" d="M301.22,26.87c-1,.72-1.83,2.35-2.5,4.67l-.38.61a2.64,2.64,0,0,0-.55,1.93c-.05.24-.06.38,0,.43s.16,0,.34-.2c.52-.71,1.1-1.56,1.73-2.46a34.9,34.9,0,0,1,2.44-3.15l0-.05a16,16,0,0,0,1.78-1.8,3.52,3.52,0,0,0-1.71-2.24l-1.49-.39a2.22,2.22,0,0,1,.56,1.23,5.67,5.67,0,0,0-1.92-.36l0,0,0,.09,0,.1,0,.12a.77.77,0,0,1,0,.15,2.17,2.17,0,0,0,0,.26v.07a.92.92,0,0,0,0,.16h0s0,.06,0,.09h0s0,.06,0,.09h0a.29.29,0,0,0,0,.09h0l0,.09h0l0,.09h0v0h.07l1.21.47Zm1-.39-1,.39A2.25,2.25,0,0,1,302.23,26.48Z"/><path class="cls-10" d="M302.28,28.7a34.9,34.9,0,0,0-2.44,3.15v.21a12,12,0,0,0,.18,4,1.26,1.26,0,0,1,0,1v.13A3.42,3.42,0,0,0,300,39a1.44,1.44,0,0,0,.39.81l.56-2.23a20.72,20.72,0,0,1,1.81-7.15,3.51,3.51,0,0,0-.45-1.76Z"/><path class="cls-10" d="M299.76,28.75a4.88,4.88,0,0,1,1.46-1.88l-.47.19-1.21-.47h-.08l-.72.17-.26.06C298.46,27.31,299,28,299.76,28.75Z"/><path class="cls-10" d="M300.85,18.27a.58.58,0,0,0,1.08.13C301.52,18.68,301.14,18.72,300.85,18.27Z"/><polygon class="cls-1" points="243.42 141.46 250.01 124.3 256.61 141.46 243.42 141.46"/><path class="cls-1" d="M250,128.18l4.56,11.89h-9.13L250,128.18m0-7.77-8.62,22.44h17.23L250,120.41Z"/><path class="cls-12" d="M250,120.84l8.39,21.86H241.62l8.4-21.86m0-.43-8.62,22.44h17.23L250,120.41Z"/><path class="cls-13" d="M230.86,144.68l-1.59,9.53a.1.1,0,0,0,.16.09l5.57-5.57,5.56-5.56a.1.1,0,0,0-.08-.17l-9.54,1.6A.11.11,0,0,0,230.86,144.68Z"/><polygon class="cls-1" points="230.87 144.61 223.22 136.95 229.22 154.51 230.87 144.61"/><path class="cls-1" d="M230.79,144.64,223.15,137l.15-.1,6,17.56-.18,0Zm.17-.06-1.65,9.95a.09.09,0,0,1-.11.07.09.09,0,0,1-.07-.06l-6-17.56a.08.08,0,0,1,.06-.11.07.07,0,0,1,.09,0Z"/><polygon class="cls-1" points="230.87 144.61 223.22 136.95 240.77 142.96 230.87 144.61"/><path class="cls-1" d="M230.85,144.7l-7.7-7.68a.1.1,0,0,1,0-.13.09.09,0,0,1,.1,0l17.55,6a.08.08,0,0,1,.06.11.1.1,0,0,1-.07.07Zm.05-.18,9.86-1.66,0,.18-17.55-6,.09-.15Z"/><polygon class="cls-1" points="210.36 163.96 227.52 157.36 227.52 170.55 210.36 163.96"/><path class="cls-1" d="M226.13,159.39v9.13L214.24,164l11.89-4.57m2.78-4L206.47,164l22.44,8.61V155.34Z"/><path class="cls-12" d="M228.76,155.56v16.79L206.9,164l21.86-8.4m.15-.22L206.47,164l22.44,8.61V155.34Z"/><path class="cls-13" d="M230.89,183.33l9.54,1.59a.09.09,0,0,0,.08-.16L235,179.19l-5.57-5.56a.09.09,0,0,0-.16.08l1.59,9.54A.11.11,0,0,0,230.89,183.33Z"/><polygon class="cls-1" points="230.82 183.31 223.17 190.97 240.72 184.97 230.82 183.31"/><path class="cls-1" d="M230.85,183.4,223.23,191l-.09-.16,17.55-6,0,.18Zm0-.17,9.94,1.65a.11.11,0,0,1,.08.11.1.1,0,0,1-.07.07l-17.55,6a.09.09,0,0,1-.12-.06.1.1,0,0,1,0-.09Z"/><polygon class="cls-1" points="230.82 183.31 223.17 190.97 229.17 173.41 230.82 183.31"/><path class="cls-1" d="M230.91,183.34l-7.68,7.7a.1.1,0,0,1-.13,0,.12.12,0,0,1,0-.1l6-17.55a.09.09,0,0,1,.12-.06.11.11,0,0,1,.06.07Zm-.17-.05-1.66-9.86.18,0-6,17.55-.15-.09Z"/><polygon class="cls-1" points="243.42 186.31 256.61 186.31 250.01 203.48 243.42 186.31"/><path class="cls-1" d="M254.58,187.71,250,199.6l-4.57-11.89h9.13m4-2.79H241.4L250,207.36l8.61-22.44Z"/><path class="cls-12" d="M258.41,185.07,250,206.94l-8.4-21.87h16.79m.22-.15H241.4L250,207.36l8.61-22.44Z"/><path class="cls-13" d="M269.14,182.94l1.59-9.53a.1.1,0,0,0-.16-.09L265,178.89l-5.56,5.56a.1.1,0,0,0,.08.17l9.54-1.6A.11.11,0,0,0,269.14,182.94Z"/><polygon class="cls-1" points="269.13 183.01 276.78 190.67 270.78 173.11 269.13 183.01"/><path class="cls-1" d="M269.21,183l7.64,7.62-.15.1-6-17.56h.18ZM269,183l1.65-9.95a.09.09,0,0,1,.11-.07.09.09,0,0,1,.07.06l6,17.56a.08.08,0,0,1-.06.11.07.07,0,0,1-.09,0Z"/><polygon class="cls-1" points="269.13 183.01 276.78 190.67 259.23 184.67 269.13 183.01"/><path class="cls-1" d="M269.15,182.92l7.7,7.68a.1.1,0,0,1,0,.13.08.08,0,0,1-.1,0l-17.55-6a.08.08,0,0,1-.06-.11.1.1,0,0,1,.07-.07Zm0,.18-9.86,1.66,0-.18,17.55,6-.09.15Z"/><polygon class="cls-1" points="272.48 157.36 289.64 163.96 272.48 170.55 272.48 157.36"/><path class="cls-1" d="M273.87,159.39,285.76,164l-11.89,4.56v-9.13m-2.78-4v17.23L293.53,164l-22.44-8.62Z"/><path class="cls-12" d="M271.24,155.56,293.1,164l-21.86,8.39V155.56m-.15-.22v17.23L293.53,164l-22.44-8.62Z"/><path class="cls-13" d="M269.26,144.75l-9.53-1.59a.1.1,0,0,0-.09.16l5.57,5.57,5.56,5.56a.1.1,0,0,0,.17-.08l-1.6-9.54A.11.11,0,0,0,269.26,144.75Z"/><polygon class="cls-1" points="269.33 144.76 276.99 137.11 259.43 143.11 269.33 144.76"/><path class="cls-1" d="M269.3,144.68l7.62-7.64.1.15-17.56,6,0-.18Zm.06.17-9.95-1.65a.09.09,0,0,1-.07-.11.09.09,0,0,1,.06-.07L277,137a.08.08,0,0,1,.11.06.07.07,0,0,1,0,.09Z"/><polygon class="cls-1" points="269.33 144.76 276.99 137.11 270.99 154.66 269.33 144.76"/><path class="cls-1" d="M269.24,144.74l7.68-7.7a.09.09,0,0,1,.13,0,.09.09,0,0,1,0,.1l-6,17.55a.09.09,0,0,1-.12.06.11.11,0,0,1-.06-.07Zm.18,0,1.66,9.86-.18,0,6-17.55.15.09Z"/><path class="cls-1" d="M250,172.55a2,2,0,1,1,2.28-2A2.15,2.15,0,0,1,250,172.55Z"/><path class="cls-1" d="M250,168.64a1.94,1.94,0,1,1-2.21,1.92,2.08,2.08,0,0,1,2.21-1.92m0-.15a2.09,2.09,0,1,0,2.36,2.07,2.24,2.24,0,0,0-2.36-2.07Z"/><path class="cls-1" d="M252.49,173.87a1.12,1.12,0,0,1-1.05-.62,1.06,1.06,0,0,1,0-.89,1.4,1.4,0,0,1,.7-.7,1.51,1.51,0,0,1,.62-.14,1.14,1.14,0,0,1,1.06.62,1.23,1.23,0,0,1-.71,1.59A1.48,1.48,0,0,1,252.49,173.87Z"/><path class="cls-1" d="M252.76,171.59a1.06,1.06,0,0,1,1,.58,1.16,1.16,0,0,1-.67,1.49,1.38,1.38,0,0,1-.59.14,1.08,1.08,0,0,1-1-.58,1.18,1.18,0,0,1,.68-1.49,1.34,1.34,0,0,1,.58-.14m0-.15a1.57,1.57,0,0,0-.65.15,1.31,1.31,0,0,0-.74,1.69,1.19,1.19,0,0,0,1.12.67,1.51,1.51,0,0,0,.65-.15,1.31,1.31,0,0,0,.75-1.69,1.21,1.21,0,0,0-1.13-.67Z"/><path class="cls-1" d="M247.54,173.87a1.51,1.51,0,0,1-.62-.14,1.23,1.23,0,0,1-.71-1.59,1.14,1.14,0,0,1,1.06-.62,1.51,1.51,0,0,1,.62.14,1.4,1.4,0,0,1,.7.7,1.06,1.06,0,0,1,0,.89A1.12,1.12,0,0,1,247.54,173.87Z"/><path class="cls-1" d="M247.27,171.59h0a1.34,1.34,0,0,1,.58.14,1.18,1.18,0,0,1,.68,1.49,1.08,1.08,0,0,1-1,.58,1.38,1.38,0,0,1-.59-.14,1.16,1.16,0,0,1-.67-1.49,1.06,1.06,0,0,1,1-.58m0-.15a1.21,1.21,0,0,0-1.13.67,1.31,1.31,0,0,0,.75,1.69,1.51,1.51,0,0,0,.65.15,1.19,1.19,0,0,0,1.12-.67,1.31,1.31,0,0,0-.74-1.69,1.57,1.57,0,0,0-.65-.15Z"/><path class="cls-1" d="M250,159.48a2,2,0,1,1,2.28-2A2.16,2.16,0,0,1,250,159.48Z"/><path class="cls-1" d="M250,155.57a1.93,1.93,0,1,1-2.21,1.91,2.08,2.08,0,0,1,2.21-1.91m0-.16a2.09,2.09,0,1,0,2.36,2.07,2.24,2.24,0,0,0-2.36-2.07Z"/><path class="cls-1" d="M247.27,156.52a1.12,1.12,0,0,1-1.06-.62,1,1,0,0,1,0-.89,1.4,1.4,0,0,1,.7-.7,1.51,1.51,0,0,1,.62-.14,1.12,1.12,0,0,1,1.05.62,1.06,1.06,0,0,1,0,.89,1.33,1.33,0,0,1-.7.7A1.37,1.37,0,0,1,247.27,156.52Z"/><path class="cls-1" d="M247.54,154.25a1.07,1.07,0,0,1,1,.57,1.18,1.18,0,0,1-.68,1.5,1.48,1.48,0,0,1-.58.13,1,1,0,0,1-1-.58,1.16,1.16,0,0,1,.67-1.49,1.37,1.37,0,0,1,.59-.13m0-.15a1.49,1.49,0,0,0-.65.14,1.33,1.33,0,0,0-.75,1.7,1.22,1.22,0,0,0,1.13.66,1.57,1.57,0,0,0,.65-.15,1.31,1.31,0,0,0,.74-1.69,1.2,1.2,0,0,0-1.12-.66Z"/><path class="cls-1" d="M252.76,156.52a1.37,1.37,0,0,1-.62-.14,1.41,1.41,0,0,1-.73-.77,1.06,1.06,0,0,1,0-.82,1.12,1.12,0,0,1,1.05-.62,1.48,1.48,0,0,1,.62.14,1.23,1.23,0,0,1,.71,1.59A1.12,1.12,0,0,1,252.76,156.52Z"/><path class="cls-1" d="M252.49,154.25h0a1.37,1.37,0,0,1,.59.13,1.33,1.33,0,0,1,.66.66,1,1,0,0,1,0,.83,1,1,0,0,1-1,.58,1.48,1.48,0,0,1-.58-.13,1.18,1.18,0,0,1-.68-1.5,1.07,1.07,0,0,1,1-.57m0-.15a1.2,1.2,0,0,0-1.12.66,1.31,1.31,0,0,0,.74,1.69,1.57,1.57,0,0,0,.65.15,1.22,1.22,0,0,0,1.13-.66,1.33,1.33,0,0,0-.75-1.7,1.49,1.49,0,0,0-.65-.14Z"/><path class="cls-1" d="M256.55,166.29a2.31,2.31,0,1,1,2-2.29A2.16,2.16,0,0,1,256.55,166.29Z"/><path class="cls-1" d="M256.55,161.79a2.23,2.23,0,1,1-1.92,2.21,2.08,2.08,0,0,1,1.92-2.21m0-.15a2.38,2.38,0,1,0,2.07,2.36,2.23,2.23,0,0,0-2.07-2.36Z"/><path class="cls-1" d="M258.82,162.67a1.33,1.33,0,0,1-1.17-.8,1.25,1.25,0,0,1,.48-1.68,1.07,1.07,0,0,1,.43-.09,1.32,1.32,0,0,1,1.16.8,1.37,1.37,0,0,1,.09,1,1,1,0,0,1-.57.69A1,1,0,0,1,258.82,162.67Z"/><path class="cls-1" d="M258.56,160.18a1.25,1.25,0,0,1,1.1.76,1.31,1.31,0,0,1,.08.93,1,1,0,0,1-.53.64.9.9,0,0,1-.4.09,1.26,1.26,0,0,1-1.09-.76,1.17,1.17,0,0,1,.44-1.58,1.1,1.1,0,0,1,.4-.08m0-.16a1.07,1.07,0,0,0-.46.11,1.31,1.31,0,0,0-.52,1.77,1.41,1.41,0,0,0,1.23.85,1.1,1.1,0,0,0,.47-.1,1.31,1.31,0,0,0,.51-1.78,1.39,1.39,0,0,0-1.23-.85Z"/><path class="cls-1" d="M258.56,167.9a1.07,1.07,0,0,1-.43-.09,1.25,1.25,0,0,1-.48-1.68,1.33,1.33,0,0,1,1.16-.8,1,1,0,0,1,.43.09,1,1,0,0,1,.57.69,1.37,1.37,0,0,1-.09,1A1.32,1.32,0,0,1,258.56,167.9Z"/><path class="cls-1" d="M258.82,165.4h0a.89.89,0,0,1,.39.09,1,1,0,0,1,.53.64,1.31,1.31,0,0,1-.08.93,1.25,1.25,0,0,1-1.1.76,1.1,1.1,0,0,1-.4-.08,1.17,1.17,0,0,1-.44-1.58,1.26,1.26,0,0,1,1.1-.76m0-.15a1.41,1.41,0,0,0-1.23.85,1.31,1.31,0,0,0,.52,1.77,1.07,1.07,0,0,0,.46.11,1.39,1.39,0,0,0,1.23-.85,1.31,1.31,0,0,0-.51-1.78,1.1,1.1,0,0,0-.47-.1Z"/><path class="cls-1" d="M243.48,166.29a2.31,2.31,0,1,1,2-2.29A2.17,2.17,0,0,1,243.48,166.29Z"/><path class="cls-1" d="M243.48,161.79a2.23,2.23,0,1,1-1.92,2.21,2.08,2.08,0,0,1,1.92-2.21m0-.15a2.38,2.38,0,1,0,2.07,2.36,2.23,2.23,0,0,0-2.07-2.36Z"/><path class="cls-1" d="M241.47,167.9a1.32,1.32,0,0,1-1.16-.8,1.24,1.24,0,0,1,.48-1.68,1,1,0,0,1,.43-.09,1.33,1.33,0,0,1,1.16.8,1.24,1.24,0,0,1-.48,1.68A1.07,1.07,0,0,1,241.47,167.9Z"/><path class="cls-1" d="M241.22,165.4a1.26,1.26,0,0,1,1.09.76,1.17,1.17,0,0,1-.44,1.58,1.1,1.1,0,0,1-.4.08,1.25,1.25,0,0,1-1.1-.76,1.31,1.31,0,0,1-.08-.93,1,1,0,0,1,.53-.64.9.9,0,0,1,.4-.09m0-.15a1.1,1.1,0,0,0-.47.1,1.31,1.31,0,0,0-.51,1.78,1.39,1.39,0,0,0,1.23.85,1.07,1.07,0,0,0,.46-.11,1.31,1.31,0,0,0,.52-1.77,1.41,1.41,0,0,0-1.23-.85Z"/><path class="cls-1" d="M241.21,162.67a1,1,0,0,1-.42-.09,1.24,1.24,0,0,1-.48-1.68,1.32,1.32,0,0,1,1.16-.8,1.07,1.07,0,0,1,.43.09,1.24,1.24,0,0,1,.48,1.68A1.33,1.33,0,0,1,241.21,162.67Z"/><path class="cls-1" d="M241.47,160.18h0a1.1,1.1,0,0,1,.4.08,1.17,1.17,0,0,1,.44,1.58,1.26,1.26,0,0,1-1.09.76.9.9,0,0,1-.4-.09,1,1,0,0,1-.53-.64,1.31,1.31,0,0,1,.08-.93,1.25,1.25,0,0,1,1.1-.76m0-.16a1.39,1.39,0,0,0-1.23.85,1.31,1.31,0,0,0,.51,1.78,1.1,1.1,0,0,0,.47.1,1.41,1.41,0,0,0,1.23-.85,1.31,1.31,0,0,0-.52-1.77,1.07,1.07,0,0,0-.46-.11Z"/><line class="cls-14" x1="259.78" y1="173.72" x2="240.34" y2="154.28"/><line class="cls-14" x1="259.78" y1="154.28" x2="240.34" y2="173.72"/><path class="cls-1" d="M250,168.34a4.32,4.32,0,1,1,4.31-4.32A4.33,4.33,0,0,1,250,168.34Z"/><path class="cls-1" d="M250,159.86a4.16,4.16,0,1,1-4.17,4.16,4.17,4.17,0,0,1,4.17-4.16m0-.31a4.47,4.47,0,1,0,4.46,4.47,4.47,4.47,0,0,0-4.46-4.47Z"/><path class="cls-15" d="M235,160.9l.37-1.45.5-1.4L231,156a22.12,22.12,0,0,0,1.81,2.66A21.38,21.38,0,0,0,235,160.9Z"/><path class="cls-15" d="M231,156l4.81,2,.65-1.36.77-1.28a22.65,22.65,0,0,0-3.07.05A23.15,23.15,0,0,0,231,156Z"/><path class="cls-16" d="M235.47,149.41a22.29,22.29,0,0,0,.67,3.14,21,21,0,0,0,1.12,2.86l.89-1.2,1-1.11"/><path class="cls-16" d="M235.47,149.41c.14.11.13.25.16.39l.07.4.16.8q.18.78.39,1.53c.15.5.33,1,.51,1.48s.38.93.58,1.38l-.16,0,.9-1.21,1-1.12.13.14-1,1.1-.88,1.2-.08.12-.08-.15c-.24-.45-.43-.9-.63-1.38s-.36-1-.53-1.47a15.7,15.7,0,0,1-.37-1.54l-.15-.8-.07-.4A.58.58,0,0,1,235.47,149.41Z"/><path class="cls-15" d="M229.45,163.85l5.22,0,.07-1.5.23-1.48a22,22,0,0,0-2.83,1.22A24.8,24.8,0,0,0,229.45,163.85Z"/><path class="cls-15" d="M237,163.89a12.81,12.81,0,0,1,1-4.94l-2.16-.9a15.1,15.1,0,0,0-1.17,5.83Z"/><path class="cls-15" d="M239.16,153.1a15.23,15.23,0,0,0-3.32,5l2.16.9a13,13,0,0,1,2.81-4.19"/><polygon class="cls-15" points="229.45 163.85 229.55 161.85 229.85 159.87 227.56 159.4 227.22 161.61 227.1 163.84 229.45 163.85"/><path class="cls-15" d="M229.85,159.87l.5-2c.21-.63.45-1.26.68-1.89l-2.16-.9c-.26.7-.53,1.4-.76,2.11s-.39,1.44-.55,2.16Z"/><path class="cls-15" d="M231,156c.27-.61.57-1.21.86-1.81s.69-1.14,1-1.72L231,151.2c-.39.63-.79,1.27-1.15,1.91s-.66,1.34-1,2Z"/><path class="cls-15" d="M233.81,147.75c-.51.55-1,1.1-1.5,1.66s-.9,1.18-1.33,1.79l1.94,1.3c.39-.54.8-1.07,1.2-1.6l1.35-1.49"/><path class="cls-15" d="M241.54,151.16c.43-.25.84-.53,1.28-.77s.9-.44,1.36-.63l-2-4.83a21.83,21.83,0,0,0-.59,3.16A19.82,19.82,0,0,0,241.54,151.16Z"/><path class="cls-15" d="M242.19,144.93l2,4.83c.47-.16.93-.36,1.4-.5s1-.26,1.45-.36a18.64,18.64,0,0,0-2.2-2.14A22.77,22.77,0,0,0,242.19,144.93Z"/><path class="cls-16" d="M250,143.38a26.8,26.8,0,0,0-1.75,2.7A22.14,22.14,0,0,0,247,148.9l1.48-.22,1.5-.08"/><path class="cls-16" d="M250,143.38a.52.52,0,0,1-.16.39l-.23.34-.45.68c-.29.45-.55.91-.81,1.35s-.47,1-.68,1.41-.4.93-.57,1.39l-.09-.14,1.49-.22,1.5-.07v.19l-1.49.07-1.47.22-.14,0,.05-.16c.15-.47.33-.94.53-1.41s.43-.95.67-1.42.53-.9.82-1.35l.46-.67.24-.33C249.76,143.56,249.82,143.43,250,143.38Z"/><path class="cls-15" d="M235.54,149.34l3.68,3.71c.37-.33.73-.68,1.11-1s.79-.61,1.21-.89a20.29,20.29,0,0,0-2.86-1.14A22.59,22.59,0,0,0,235.54,149.34Z"/><path class="cls-15" d="M240.86,154.71a13.17,13.17,0,0,1,4.21-2.79l-.89-2.16a15.3,15.3,0,0,0-5,3.29Z"/><path class="cls-15" d="M250,148.6a15.5,15.5,0,0,0-5.83,1.16l.89,2.16a13.22,13.22,0,0,1,4.94-1"/><path class="cls-15" d="M235.54,149.34c.5-.45,1-.91,1.5-1.34s1.06-.82,1.61-1.19l-1.29-1.95c-.62.42-1.21.88-1.8,1.32s-1.11,1-1.66,1.49Z"/><path class="cls-15" d="M238.65,146.81c.57-.34,1.13-.71,1.72-1s1.2-.6,1.82-.86l-.89-2.16c-.69.28-1.35.63-2,.95s-1.28.75-1.91,1.14Z"/><path class="cls-15" d="M242.19,144.93c.63-.22,1.25-.48,1.89-.67s1.29-.35,1.95-.48l-.45-2.3c-.73.15-1.45.35-2.18.54s-1.4.49-2.1.75Z"/><path class="cls-15" d="M250,141l-2.22.11c-.74.09-1.48.21-2.21.33l.45,2.3c.66-.11,1.32-.22,2-.3l2-.1"/><path class="cls-15" d="M253.07,148.91l1.45.37,1.41.5,2-4.81a23.35,23.35,0,0,0-2.66,1.81A21.38,21.38,0,0,0,253.07,148.91Z"/><path class="cls-15" d="M257.94,145l-2,4.81,1.35.65,1.28.77a21.13,21.13,0,0,0-.05-3.07A23.15,23.15,0,0,0,257.94,145Z"/><path class="cls-16" d="M264.56,149.41a22.6,22.6,0,0,0-3.14.67,21,21,0,0,0-2.86,1.12l1.2.89,1.11,1"/><path class="cls-16" d="M264.56,149.41c-.11.14-.25.13-.39.16l-.4.07-.8.16c-.52.12-1,.25-1.52.39s-1,.33-1.48.51-.94.38-1.39.58l0-.16,1.21.9,1.12,1-.14.13-1.1-1-1.2-.88-.12-.08.15-.08c.45-.24.9-.43,1.38-.63s1-.36,1.47-.53a15.7,15.7,0,0,1,1.54-.37l.8-.15.4-.07A.58.58,0,0,1,264.56,149.41Z"/><path class="cls-15" d="M250.12,143.39l0,5.22,1.5.07,1.48.23a23.35,23.35,0,0,0-1.21-2.83A26.55,26.55,0,0,0,250.12,143.39Z"/><path class="cls-15" d="M250.08,151a13,13,0,0,1,4.94,1l.91-2.16a15.18,15.18,0,0,0-5.84-1.17Z"/><path class="cls-15" d="M260.87,153.1a15.3,15.3,0,0,0-4.94-3.32l-.91,2.16a13,13,0,0,1,4.19,2.81"/><polygon class="cls-15" points="250.12 143.39 252.12 143.49 254.1 143.79 254.57 141.5 252.36 141.16 250.13 141.04 250.12 143.39"/><path class="cls-15" d="M254.1,143.79l2,.5c.63.21,1.26.45,1.89.68l.9-2.16c-.7-.26-1.4-.53-2.11-.76s-1.44-.39-2.16-.55Z"/><path class="cls-15" d="M257.94,145c.61.27,1.21.57,1.81.86s1.14.69,1.72,1l1.3-1.94c-.63-.39-1.27-.79-1.91-1.15s-1.34-.66-2-1Z"/><path class="cls-15" d="M266.22,147.75c-.55-.51-1.1-1-1.66-1.5s-1.18-.9-1.79-1.33l-1.3,1.94c.54.39,1.07.8,1.6,1.2l1.49,1.35"/><path class="cls-15" d="M262.81,155.48c.25.43.53.84.77,1.28s.44.9.63,1.36l4.83-2a21.58,21.58,0,0,0-3.16-.59A19.82,19.82,0,0,0,262.81,155.48Z"/><path class="cls-15" d="M269,156.13l-4.83,2c.16.47.36.93.5,1.4s.26,1,.36,1.45a18.64,18.64,0,0,0,2.14-2.2A21.6,21.6,0,0,0,269,156.13Z"/><path class="cls-16" d="M270.59,164a25.72,25.72,0,0,0-2.7-1.75,22.14,22.14,0,0,0-2.82-1.23l.22,1.48.08,1.5"/><path class="cls-16" d="M270.59,164c-.18,0-.28-.08-.39-.16l-.34-.23-.68-.45c-.45-.29-.91-.55-1.35-.81s-.95-.47-1.41-.68-.93-.4-1.39-.57l.14-.09.22,1.49.07,1.5h-.19l-.07-1.49L265,161s0-.09,0-.14l.16.05c.47.15.94.33,1.41.53s1,.43,1.42.67.9.53,1.35.82l.67.46.33.24C270.41,163.7,270.54,163.76,270.59,164Z"/><path class="cls-15" d="M264.63,149.48l-3.71,3.68c.33.37.68.73,1,1.11s.61.8.89,1.21a20.29,20.29,0,0,0,1.14-2.86A22.59,22.59,0,0,0,264.63,149.48Z"/><path class="cls-15" d="M259.26,154.8a13.17,13.17,0,0,1,2.79,4.21l2.16-.89a15.3,15.3,0,0,0-3.29-5Z"/><path class="cls-15" d="M265.37,164a15.5,15.5,0,0,0-1.16-5.83l-2.16.89a13.22,13.22,0,0,1,1,4.94"/><path class="cls-15" d="M264.63,149.48c.45.5.91,1,1.34,1.5s.82,1.06,1.19,1.61l1.95-1.29c-.42-.62-.88-1.21-1.32-1.8s-1-1.11-1.49-1.66Z"/><path class="cls-15" d="M267.16,152.59c.34.57.71,1.13,1,1.72s.6,1.2.86,1.82l2.16-.89c-.28-.69-.63-1.35-.95-2s-.75-1.28-1.14-1.91Z"/><path class="cls-15" d="M269,156.13c.22.63.48,1.25.67,1.89s.35,1.29.48,1.95l2.3-.45c-.15-.73-.35-1.45-.54-2.17s-.49-1.41-.75-2.11Z"/><path class="cls-15" d="M272.93,164l-.11-2.22c-.09-.74-.21-1.48-.33-2.21l-2.3.45c.11.66.22,1.32.3,2l.1,2"/><path class="cls-15" d="M265.06,167l-.36,1.45-.51,1.41,4.81,2a22.12,22.12,0,0,0-1.81-2.66A21.38,21.38,0,0,0,265.06,167Z"/><path class="cls-15" d="M269,171.88l-4.81-2-.65,1.35-.77,1.28a21.13,21.13,0,0,0,3.07-.05A23.15,23.15,0,0,0,269,171.88Z"/><path class="cls-16" d="M264.56,178.5a22.6,22.6,0,0,0-.67-3.14,21,21,0,0,0-1.12-2.86l-.89,1.2-1,1.11"/><path class="cls-16" d="M264.56,178.5c-.14-.11-.13-.25-.16-.39l-.07-.4-.16-.8c-.12-.52-.25-1-.39-1.52s-.33-1-.51-1.48-.38-.94-.58-1.39l.16,0-.9,1.21-1,1.12-.13-.14,1-1.1.88-1.2.08-.12.08.15c.24.45.43.9.63,1.38s.36,1,.53,1.48a14.85,14.85,0,0,1,.37,1.53l.15.8.07.4A.58.58,0,0,1,264.56,178.5Z"/><path class="cls-15" d="M270.58,164.06l-5.22,0-.07,1.5-.23,1.48a23.35,23.35,0,0,0,2.83-1.21A26.55,26.55,0,0,0,270.58,164.06Z"/><path class="cls-15" d="M263,164a12.81,12.81,0,0,1-1,4.94l2.16.91a15.18,15.18,0,0,0,1.17-5.84Z"/><path class="cls-15" d="M260.87,174.81a15.3,15.3,0,0,0,3.32-4.94L262,169a13,13,0,0,1-2.81,4.19"/><polygon class="cls-15" points="270.58 164.06 270.48 166.06 270.18 168.04 272.48 168.51 272.81 166.3 272.93 164.07 270.58 164.06"/><path class="cls-15" d="M270.18,168l-.5,2c-.21.63-.45,1.26-.68,1.89l2.16.9c.26-.7.53-1.4.76-2.11s.39-1.44.55-2.16Z"/><path class="cls-15" d="M269,171.88c-.27.61-.57,1.21-.86,1.81s-.69,1.15-1,1.72l1.94,1.3c.39-.63.79-1.27,1.15-1.91s.66-1.34,1-2Z"/><path class="cls-15" d="M266.22,180.16c.51-.55,1-1.1,1.5-1.66s.9-1.18,1.33-1.79l-1.94-1.3c-.39.54-.8,1.07-1.2,1.6l-1.35,1.49"/><path class="cls-15" d="M258.49,176.75c-.43.25-.84.53-1.28.77s-.9.44-1.36.63l2,4.83a21.58,21.58,0,0,0,.59-3.16A19.82,19.82,0,0,0,258.49,176.75Z"/><path class="cls-15" d="M257.84,183l-2-4.83c-.47.16-.93.36-1.4.5s-1,.26-1.45.36a18.64,18.64,0,0,0,2.2,2.14A21.6,21.6,0,0,0,257.84,183Z"/><path class="cls-16" d="M250,184.53a24.21,24.21,0,0,0,1.75-2.7A22.14,22.14,0,0,0,253,179l-1.48.22-1.5.08"/><path class="cls-16" d="M250,184.53a.52.52,0,0,1,.16-.39l.23-.34.45-.68c.29-.45.55-.91.81-1.35s.47-1,.68-1.41.4-.93.57-1.39l.09.14-1.49.22-1.5.07v-.19l1.49-.07,1.47-.22.14,0-.05.16c-.15.47-.33.94-.53,1.41s-.43.95-.67,1.42-.53.9-.82,1.35l-.46.67-.24.33C250.27,184.35,250.21,184.48,250,184.53Z"/><path class="cls-15" d="M264.49,178.57l-3.68-3.71c-.37.33-.73.68-1.11,1s-.79.61-1.21.89a20.29,20.29,0,0,0,2.86,1.14A22.59,22.59,0,0,0,264.49,178.57Z"/><path class="cls-15" d="M259.17,173.2A13.17,13.17,0,0,1,255,176l.89,2.16a15.14,15.14,0,0,0,5-3.29Z"/><path class="cls-15" d="M250,179.31a15.5,15.5,0,0,0,5.83-1.16L255,176a13.22,13.22,0,0,1-4.94,1"/><path class="cls-15" d="M264.49,178.57c-.5.45-1,.91-1.5,1.34s-1.06.82-1.61,1.19l1.3,2c.61-.42,1.2-.88,1.79-1.32s1.11-1,1.66-1.49Z"/><path class="cls-15" d="M261.38,181.1c-.57.34-1.13.71-1.72,1s-1.2.6-1.82.86l.89,2.16c.69-.28,1.35-.62,2-.95s1.28-.75,1.92-1.14Z"/><path class="cls-15" d="M257.84,183c-.63.22-1.25.48-1.89.67s-1.29.35-1.95.49l.45,2.29c.73-.15,1.45-.35,2.18-.54s1.4-.49,2.1-.75Z"/><path class="cls-15" d="M250,186.87l2.22-.11c.74-.09,1.48-.21,2.21-.33l-.45-2.29c-.66.1-1.32.21-2,.29l-2,.1"/><path class="cls-15" d="M247,179l-1.45-.36-1.41-.51-2,4.81a22.12,22.12,0,0,0,2.66-1.81A21.38,21.38,0,0,0,247,179Z"/><path class="cls-15" d="M242.09,182.94l2-4.81-1.35-.65-1.28-.77a21.13,21.13,0,0,0,.05,3.07A23.15,23.15,0,0,0,242.09,182.94Z"/><path class="cls-16" d="M235.47,178.5a24.16,24.16,0,0,0,3.14-.66,22.41,22.41,0,0,0,2.86-1.13l-1.2-.89-1.11-1"/><path class="cls-16" d="M235.47,178.5c.11-.14.25-.13.39-.16l.4-.07.8-.16q.78-.18,1.53-.39c.5-.15,1-.33,1.47-.51s.94-.38,1.39-.58l0,.16-1.21-.9-1.12-1,.14-.13,1.1,1,1.2.88.12.08-.15.08c-.45.24-.9.43-1.38.63s-1,.36-1.47.53a15.7,15.7,0,0,1-1.54.37l-.8.15-.4.07A.53.53,0,0,1,235.47,178.5Z"/><path class="cls-15" d="M249.91,184.52l0-5.21-1.5-.08L247,179a23.35,23.35,0,0,0,1.21,2.83A26.55,26.55,0,0,0,249.91,184.52Z"/><path class="cls-15" d="M250,177a12.81,12.81,0,0,1-4.94-1l-.91,2.16a15.38,15.38,0,0,0,5.84,1.18Z"/><path class="cls-15" d="M239.16,174.81a15.3,15.3,0,0,0,4.94,3.32L245,176a13,13,0,0,1-4.19-2.81"/><polygon class="cls-15" points="249.91 184.52 247.91 184.42 245.93 184.12 245.46 186.41 247.67 186.75 249.9 186.87 249.91 184.52"/><path class="cls-15" d="M245.93,184.12l-2-.5c-.63-.21-1.26-.45-1.89-.68l-.9,2.16c.7.26,1.4.53,2.11.76s1.44.39,2.16.55Z"/><path class="cls-15" d="M242.09,182.94c-.61-.27-1.21-.57-1.81-.86s-1.14-.69-1.72-1l-1.3,1.94c.63.39,1.27.79,1.91,1.15s1.34.66,2,1Z"/><path class="cls-15" d="M233.81,180.16c.55.51,1.1,1,1.66,1.5s1.18.9,1.79,1.33l1.3-1.94c-.54-.39-1.07-.8-1.6-1.2l-1.49-1.35"/><path class="cls-15" d="M237.22,172.43c-.25-.43-.53-.84-.77-1.28s-.44-.9-.63-1.36l-4.83,2a21.58,21.58,0,0,0,3.16.59A19.82,19.82,0,0,0,237.22,172.43Z"/><path class="cls-15" d="M231,171.78l4.83-2c-.16-.47-.36-.93-.5-1.4s-.26-1-.36-1.45a18.64,18.64,0,0,0-2.14,2.2A21.6,21.6,0,0,0,231,171.78Z"/><path class="cls-16" d="M229.44,164a24.21,24.21,0,0,0,2.7,1.75,22.14,22.14,0,0,0,2.82,1.23l-.22-1.48-.08-1.5"/><path class="cls-16" d="M229.44,164a.52.52,0,0,1,.39.16l.34.23.68.45c.45.29.91.55,1.35.81s1,.47,1.41.68.93.4,1.39.57l-.14.09-.22-1.49-.07-1.5h.19l.07,1.49.22,1.47s0,.09,0,.14l-.16-.05c-.47-.15-.94-.33-1.41-.53s-.95-.43-1.42-.67-.9-.53-1.35-.82l-.67-.46-.33-.24C229.62,164.21,229.49,164.15,229.44,164Z"/><path class="cls-15" d="M235.4,178.43l3.71-3.68c-.33-.37-.68-.73-1-1.11s-.61-.79-.89-1.21a20.29,20.29,0,0,0-1.14,2.86A22.59,22.59,0,0,0,235.4,178.43Z"/><path class="cls-15" d="M240.77,173.11A13.17,13.17,0,0,1,238,168.9l-2.16.89a15.3,15.3,0,0,0,3.29,5Z"/><path class="cls-15" d="M234.66,164a15.5,15.5,0,0,0,1.16,5.83l2.16-.89a13.22,13.22,0,0,1-1-4.94"/><path class="cls-15" d="M235.4,178.43c-.45-.5-.91-1-1.34-1.5s-.82-1.06-1.19-1.61l-2,1.3c.42.61.88,1.2,1.32,1.79s1,1.11,1.49,1.66Z"/><path class="cls-15" d="M232.87,175.32c-.34-.57-.71-1.13-1-1.72s-.6-1.2-.86-1.82l-2.16.89c.28.69.63,1.35.95,2s.75,1.28,1.14,1.92Z"/><path class="cls-15" d="M231,171.78c-.22-.63-.48-1.25-.67-1.89s-.35-1.29-.48-1.95l-2.3.45c.15.73.35,1.45.54,2.18s.49,1.4.75,2.1Z"/><path class="cls-15" d="M227.1,164l.11,2.22c.09.74.21,1.48.33,2.21l2.3-.45c-.11-.66-.22-1.32-.3-2l-.1-2"/></g><g id="Layer_2" data-name="Layer 2"><path class="cls-17" d="M47.92,352.77c49.22,24.31,125.65,54.89,198.85,54.89,59.55,0,136-19.33,198.44-39.05a215.59,215.59,0,0,0,21.2-101.47c-4.25-119.52-104.58-213-224.1-208.72S29.35,163,33.59,282.52A216.15,216.15,0,0,0,47.92,352.77Z"/><path class="cls-3" d="M47.92,352.77A215.13,215.13,0,0,0,67.22,391l4.66-4.55-.74,8.85a60.31,60.31,0,0,1,12.61,11.21c3.7,4.42,9,8.26,15.42,11.61L107,404V421.7c1.55.65,3.14,1.26,4.78,1.86l16-33.21v38.14q3.77,1,7.64,1.84l11.24-19.16-.58,21.35q3.63.68,7.27,1.27l4.63-9.11,9.65,11.2a588.59,588.59,0,0,0,66.62,4.49s75.7-1.41,122.54-10.28l-4.35-16.2L369,427.42c3.45-.88,6.63-1.81,9.45-2.81,1-.36,2-.73,3-1.1l-2.19-33.93,12.22,29.8q3.19-1.42,6.27-2.93v-23l16.32,14.4c3.95-2.21,7.82-4.44,11.65-6.61l3.43-9.09,1.17,2.5a214.48,214.48,0,0,0,14.83-26c-62.46,19.72-138.89,39.05-198.44,39.05C173.57,407.66,97.14,377.08,47.92,352.77Z"/><path class="cls-18" d="M425.78,401.23l.07-.05q2.32-3.23,4.53-6.54l-1.17-2.5Z"/><path class="cls-18" d="M352.43,413.89l4.35,16.2c4.36-.82,8.48-1.71,12.25-2.67Z"/><path class="cls-18" d="M379.32,389.58l2.19,33.93q5.17-2,10-4.13Z"/><path class="cls-18" d="M158,424.68l-4.63,9.11c4.77.79,9.55,1.48,14.28,2.09Z"/><path class="cls-18" d="M71.88,386.42,67.22,391c.63,1,1.27,2,1.92,3,.67.42,1.34.86,2,1.31Z"/><path class="cls-18" d="M146.65,411.17l-11.24,19.16q5.26,1.19,10.66,2.19Z"/><path class="cls-18" d="M107,404l-7.82,14.11c2.45,1.28,5.07,2.48,7.82,3.61Z"/><path class="cls-18" d="M397.81,393.44v23c5.67-2.75,11.08-5.67,16.32-8.61Z"/><path class="cls-18" d="M127.77,390.35l-16,33.21c5,1.84,10.39,3.47,16,4.93Z"/><path class="cls-18" d="M414.13,407.84c-5.24,2.94-10.65,5.86-16.32,8.61q-3.07,1.5-6.27,2.93-4.86,2.17-10,4.13c-1,.37-2,.74-3,1.1-2.82,1-6,1.93-9.45,2.81-3.77,1-7.89,1.85-12.25,2.67-46.84,8.87-122.54,10.28-122.54,10.28a588.59,588.59,0,0,1-66.62-4.49c-4.73-.61-9.51-1.3-14.28-2.09q-3.65-.6-7.27-1.27-5.38-1-10.66-2.19-3.87-.87-7.64-1.84c-5.61-1.46-11-3.09-16-4.93-1.64-.6-3.23-1.21-4.78-1.86-2.75-1.13-5.37-2.33-7.82-3.61-6.41-3.35-11.72-7.19-15.42-11.61a60.31,60.31,0,0,0-12.61-11.21c-.66-.45-1.33-.89-2-1.31a217.75,217.75,0,0,0,66,64.44c11.22.71,22.22,1.63,32.79,2.67a84,84,0,0,0,18.29-3.59c44.63-14.57,77.4,5,77.4,5s20.33-31.39,51.28-22.9c10.42,2.86,23.28,5,35.66,7.14,15-4.24,29.25-7.25,40-7.13a217.3,217.3,0,0,0,35.32-38.39l-.07.05C422,403.4,418.08,405.63,414.13,407.84Z"/><path class="cls-19" d="M267.91,472.23c11.71-.55,49.14-16.09,82.62-25.53-12.38-2.18-25.24-4.28-35.66-7.14-30.95-8.49-51.28,22.9-51.28,22.9s-32.77-19.55-77.4-5a84,84,0,0,1-18.29,3.59C216,465.79,255.36,472.83,267.91,472.23Z"/><path class="cls-20" d="M350.53,446.7c-33.48,9.44-70.91,25-82.62,25.53-12.55.6-52-6.44-100-11.16-10.57-1-21.57-2-32.79-2.67a216.21,216.21,0,0,0,36.62,18.38A548.53,548.53,0,0,1,232.09,478c26,2,49.44,4.52,70.66,6.93a215.55,215.55,0,0,0,87.78-45.31C379.78,439.45,365.55,442.46,350.53,446.7Z"/><path class="cls-21" d="M171.73,476.78a217.28,217.28,0,0,0,131,8.1c-21.22-2.41-44.67-4.89-70.66-6.93A548.53,548.53,0,0,0,171.73,476.78Z"/></g></svg>