<?xml version="1.0" standalone="no"?>
<!DOCTYPE svg PUBLIC "-//W3C//DTD SVG 20010904//EN"
 "http://www.w3.org/TR/2001/REC-SVG-20010904/DTD/svg10.dtd">
<svg version="1.0" xmlns="http://www.w3.org/2000/svg"
 width="1000.000000pt" height="1000.000000pt" viewBox="0 0 1000.000000 1000.000000"
 preserveAspectRatio="xMidYMid meet">
<metadata>
Created by potrace 1.11, written by Peter Selinger 2001-2013
</metadata>
<g transform="translate(0.000000,1000.000000) scale(0.100000,-0.100000)"
fill="#000000" stroke="none">
<path d="M4790 9654 c-180 -12 -349 -27 -445 -40 -815 -109 -1626 -447 -2280
-949 -1022 -785 -1688 -1935 -1854 -3200 -46 -353 -52 -775 -16 -1115 143
-1347 788 -2506 1860 -3347 103 -81 390 -275 515 -350 429 -254 1024 -476
1520 -567 630 -115 1193 -115 1820 0 744 137 1490 480 2105 969 346 275 688
638 930 988 43 61 81 114 85 117 3 3 36 52 72 110 303 487 537 1092 642 1661
196 1061 50 2112 -424 3060 -745 1487 -2200 2485 -3857 2644 -154 15 -563 27
-673 19z m-1870 -1818 l5 -389 379 392 378 391 212 0 211 0 -418 -417 -418
-417 39 -40 c32 -33 740 -799 831 -898 l25 -28 -221 0 -220 0 -394 450 c-217
247 -397 450 -401 450 -4 0 -9 -201 -10 -447 l-3 -448 -155 0 -155 0 -3 885
c-1 487 0 891 3 898 3 10 41 12 157 10 l153 -3 5 -389z m3395 384 c7 -11 171
-468 409 -1138 42 -118 80 -221 85 -230 12 -20 16 -10 86 183 25 72 77 216
115 320 38 105 116 323 175 485 58 162 114 315 124 340 l17 45 168 3 c157 2
168 1 164 -15 -7 -23 -697 -1743 -709 -1765 -9 -16 -26 -18 -142 -18 l-133 0
-104 263 c-57 144 -140 354 -185 467 -255 638 -415 1047 -415 1058 0 15 336
17 345 2z m-1396 -670 c-12 -27 -39 -66 -61 -86 -70 -63 -92 -68 -303 -72
-104 -2 -187 0 -182 4 4 4 73 24 155 44 165 41 212 61 265 117 45 46 64 95
108 279 l34 140 3 -188 c2 -174 1 -192 -19 -238z m244 65 c22 -43 74 -93 121
-118 23 -11 107 -37 188 -57 82 -20 151 -40 155 -44 5 -4 -77 -6 -182 -4 -209
4 -232 9 -300 69 -21 19 -49 56 -61 84 -22 47 -24 61 -24 245 l1 195 43 -170
c24 -94 50 -184 59 -200z m-367 -362 c50 -27 97 -74 121 -122 15 -31 18 -66
20 -236 l2 -200 -43 165 c-44 171 -52 193 -93 247 -40 54 -103 82 -286 129
l-172 44 205 -3 c188 -2 208 -4 246 -24z m689 -17 c-177 -44 -198 -52 -252
-93 -54 -39 -83 -104 -129 -281 l-43 -167 2 200 c2 220 7 240 69 304 69 71
104 79 338 79 l185 1 -170 -43z m227 -2513 c24 -21 23 -68 -2 -93 -17 -17 -33
-20 -110 -20 -100 0 -130 15 -130 65 0 50 30 65 132 65 71 0 95 -4 110 -17z
m320 0 c24 -21 23 -68 -2 -93 -17 -17 -33 -20 -110 -20 -100 0 -130 15 -130
65 0 50 30 65 132 65 71 0 95 -4 110 -17z m323 -3 c24 -27 22 -70 -5 -92 -18
-14 -40 -18 -110 -18 -84 0 -90 1 -109 26 -26 33 -27 58 -1 84 17 17 33 20
113 20 81 0 96 -3 112 -20z m320 0 c25 -27 22 -70 -5 -92 -19 -16 -38 -18
-113 -16 -84 3 -91 5 -110 29 -12 17 -17 34 -12 48 14 44 31 51 129 51 80 0
95 -3 111 -20z m-963 -247 c22 -19 23 -62 4 -89 -12 -16 -29 -20 -103 -22 -78
-3 -91 -1 -116 18 -30 24 -35 55 -11 88 14 20 23 22 111 22 76 0 100 -4 115
-17z m320 0 c22 -19 23 -62 4 -89 -12 -16 -29 -20 -103 -22 -78 -3 -91 -1
-116 18 -30 24 -35 55 -11 88 14 20 23 22 111 22 76 0 100 -4 115 -17z m322 1
c27 -26 24 -71 -6 -96 -16 -14 -39 -18 -105 -18 -76 0 -86 2 -108 25 -29 28
-31 51 -9 83 14 20 23 22 114 22 76 0 102 -4 114 -16z m320 0 c27 -26 24 -71
-6 -96 -16 -14 -39 -18 -105 -18 -76 0 -86 2 -108 25 -29 28 -31 51 -9 83 14
20 23 22 114 22 76 0 102 -4 114 -16z m-2776 -171 l3 -93 -96 0 -95 0 0 95 0
96 93 -3 92 -3 3 -92z m320 0 l3 -93 -96 0 -95 0 0 95 0 96 93 -3 92 -3 3 -92z
m1494 -80 c24 -21 23 -68 -2 -93 -17 -17 -33 -20 -104 -20 -69 0 -88 4 -110
21 -29 23 -33 54 -10 87 14 20 23 22 111 22 76 0 100 -4 115 -17z m320 0 c24
-21 23 -68 -2 -93 -17 -17 -33 -20 -104 -20 -69 0 -88 4 -110 21 -29 23 -33
54 -10 87 14 20 23 22 111 22 76 0 100 -4 115 -17z m323 -3 c24 -27 22 -70 -5
-92 -17 -14 -40 -18 -107 -18 -76 0 -86 2 -108 25 -30 29 -32 58 -5 85 17 17
33 20 113 20 81 0 96 -3 112 -20z m319 4 c27 -26 24 -71 -6 -96 -16 -14 -39
-18 -105 -18 -76 0 -86 2 -108 25 -30 29 -32 58 -5 85 17 17 33 20 114 20 73
0 98 -4 110 -16z m-2776 -226 l-3 -93 -92 -3 -93 -3 0 96 0 95 95 0 96 0 -3
-92z m320 0 l-3 -93 -92 -3 -93 -3 0 96 0 95 95 0 96 0 -3 -92z m1475 -9 c29
-16 37 -28 37 -60 0 -46 -32 -64 -124 -67 -71 -3 -84 -1 -108 18 -45 35 -33
93 22 113 28 10 151 7 173 -4z m320 0 c29 -16 37 -28 37 -60 0 -46 -32 -64
-124 -67 -71 -3 -84 -1 -108 18 -45 35 -33 93 22 113 28 10 151 7 173 -4z
m327 -2 c43 -22 40 -95 -5 -115 -31 -15 -144 -16 -179 -2 -55 21 -57 98 -4
120 34 13 159 12 188 -3z m315 3 c52 -20 52 -95 -2 -119 -30 -14 -143 -14
-177 -1 -55 21 -57 98 -4 120 31 12 151 12 183 0z m-2755 -275 l0 -95 -95 0
-95 0 0 95 0 95 95 0 95 0 0 -95z m320 0 l0 -95 -95 0 -95 0 0 95 0 95 95 0
95 0 0 -95z m1489 11 c30 -27 27 -70 -5 -95 -22 -17 -41 -21 -104 -21 -63 0
-82 4 -104 21 -43 34 -31 90 24 112 8 4 49 5 91 4 59 -2 82 -6 98 -21z m315 3
c17 -13 26 -30 26 -47 0 -54 -33 -72 -133 -72 -87 0 -127 22 -127 69 0 51 35
69 136 70 58 1 76 -3 98 -20z m316 8 c21 -11 25 -20 25 -57 0 -57 -22 -70
-128 -70 -69 0 -81 3 -102 25 -37 36 -28 86 18 105 33 13 159 11 187 -3z m336
-9 c21 -21 21 -76 -1 -97 -19 -20 -156 -28 -198 -12 -56 22 -59 98 -5 121 39
16 185 8 204 -12z m-3829 -738 l2 -665 -34 60 -35 60 0 596 c0 628 0 623 45
617 20 -3 20 -10 22 -668z m131 -93 c2 -738 2 -758 -17 -748 -10 6 -26 26 -35
45 -14 30 -16 108 -16 734 0 385 3 708 6 717 4 10 16 15 33 13 l26 -3 3 -758z
m126 747 c3 -9 6 -334 6 -723 l0 -707 -35 -34 -35 -34 0 741 c0 408 3 748 6
757 3 9 16 16 29 16 13 0 26 -7 29 -16z m131 4 c3 -7 4 -339 3 -738 l-3 -725
-32 47 -33 47 0 684 c0 376 3 687 7 690 11 12 53 8 58 -5z m129 -4 c9 -24 7
-1517 -3 -1532 -4 -8 -19 -12 -32 -10 l-24 3 -3 765 c-1 421 0 771 3 778 6 17
52 15 59 -4z m4524 -291 l-3 -268 -50 0 -50 0 -3 268 -2 267 55 0 55 0 -2
-267z m202 -4 l0 -270 -52 3 -53 3 -3 268 -2 267 55 0 55 0 0 -271z m205 1 l0
-265 -52 -3 -53 -3 0 271 0 271 53 -3 52 -3 0 -265z m203 3 l-3 -268 -52 -3
-53 -3 0 270 0 271 55 0 55 0 -2 -267z m200 0 l-3 -268 -50 0 -50 0 -3 268 -2
267 55 0 55 0 -2 -267z m-4800 80 l3 -93 -96 0 -95 0 0 95 0 96 93 -3 92 -3 3
-92z m320 0 l3 -93 -96 0 -95 0 0 95 0 96 93 -3 92 -3 3 -92z m1512 -13 l0
-70 -130 0 -130 0 0 70 0 70 130 0 130 0 0 -70z m320 0 l0 -70 -130 0 -130 0
0 70 0 70 130 0 130 0 0 -70z m325 0 l0 -65 -132 -3 -133 -3 0 64 c0 35 3 67
7 71 4 3 63 5 132 4 l126 -3 0 -65z m320 0 l0 -65 -132 -3 -133 -3 0 64 c0 35
3 67 7 71 4 3 63 5 132 4 l126 -3 0 -65z m-2490 -205 c32 -31 35 -101 6 -136
-19 -24 -22 -24 -235 -27 l-216 -3 -25 25 c-35 35 -35 106 0 141 24 25 24 25
235 25 211 0 211 0 235 -25z m559 3 c18 -26 22 -119 6 -149 -9 -16 -22 -19
-94 -19 -55 0 -87 4 -94 13 -15 18 -25 81 -17 116 11 52 28 61 110 61 65 0 76
-3 89 -22z m360 0 c10 -13 16 -43 16 -73 0 -30 -6 -60 -16 -73 -13 -20 -24
-22 -93 -22 -97 0 -106 8 -106 95 0 87 9 95 106 95 69 0 80 -2 93 -22z m606
-48 l0 -71 -127 3 -128 3 -3 68 -3 67 131 0 130 0 0 -70z m320 0 l0 -71 -127
3 -128 3 -3 68 -3 67 131 0 130 0 0 -70z m325 0 l0 -65 -130 0 -130 0 -3 54
c-5 85 -10 82 135 79 l128 -3 0 -65z m320 0 l0 -65 -130 0 -130 0 -3 54 c-5
85 -10 82 135 79 l128 -3 0 -65z m-965 -250 l0 -70 -130 0 -130 0 0 70 0 70
130 0 130 0 0 -70z m320 0 l0 -71 -127 3 -128 3 -3 68 -3 67 131 0 130 0 0
-70z m325 0 l0 -65 -130 0 -130 0 -3 68 -3 68 133 -3 133 -3 0 -65z m320 0 l0
-65 -130 0 -130 0 -3 68 -3 68 133 -3 133 -3 0 -65z m1195 -147 c0 -175 -3
-226 -17 -270 -16 -52 -17 -53 -55 -53 l-38 0 0 270 0 270 55 0 55 0 0 -217z
m200 -53 l0 -270 -30 0 c-17 0 -42 7 -55 16 l-25 16 0 254 0 254 55 0 55 0 0
-270z m208 136 c1 -72 0 -137 -3 -145 -4 -11 -18 -2 -55 34 l-50 49 0 99 0 98
53 -3 52 -3 3 -129z m202 -106 c0 -132 -3 -240 -7 -240 -4 0 -29 21 -55 47
l-48 47 0 193 0 193 55 0 55 0 0 -240z m200 138 l-1 -103 -34 84 c-53 129 -53
121 -6 121 l41 0 0 -102z m-4496 43 c33 -32 36 -96 5 -135 l-20 -26 -219 0
-219 0 -20 26 c-29 37 -29 104 2 131 12 11 29 23 37 26 8 3 104 5 212 4 193
-2 197 -2 222 -26z m566 0 c5 -11 10 -43 10 -71 0 -84 -7 -90 -104 -90 -61 0
-87 4 -96 15 -18 22 -24 88 -10 129 l12 36 88 0 c78 0 91 -2 100 -19z m360 0
c13 -25 13 -102 0 -135 -9 -25 -12 -26 -98 -26 -85 0 -89 1 -100 25 -7 14 -12
44 -12 65 0 21 5 51 12 65 11 24 15 25 99 25 77 0 90 -2 99 -19z m600 -256 l0
-65 -130 0 -130 0 0 65 0 65 130 0 130 0 0 -65z m320 0 l0 -65 -130 0 -130 0
0 65 0 65 130 0 130 0 0 -65z m328 -2 l3 -63 -136 0 -135 0 0 65 0 66 133 -3
132 -3 3 -62z m320 0 l3 -63 -136 0 -135 0 0 65 0 66 133 -3 132 -3 3 -62z
m-2493 -28 c18 -17 25 -35 25 -64 0 -94 -18 -101 -260 -101 -242 0 -260 7
-260 101 0 29 7 47 25 64 24 25 24 25 235 25 211 0 211 0 235 -25z m565 6 c16
-30 12 -123 -6 -149 -13 -20 -24 -22 -95 -22 l-80 0 -16 37 c-16 40 -12 115 8
139 8 10 37 14 95 14 72 0 85 -3 94 -19z m354 -3 c10 -13 16 -43 16 -73 0 -30
-6 -60 -16 -73 -13 -20 -24 -22 -93 -22 -97 0 -106 8 -106 95 0 87 9 95 106
95 69 0 80 -2 93 -22z m606 -223 l0 -65 -130 0 -130 0 0 65 0 65 130 0 130 0
0 -65z m320 0 l0 -65 -130 0 -130 0 0 65 0 65 130 0 130 0 0 -65z m330 0 l0
-65 -135 0 -135 0 0 65 0 65 135 0 135 0 0 -65z m320 0 l0 -65 -67 0 c-38 0
-98 3 -135 7 l-68 6 0 58 0 59 135 0 135 0 0 -65z"/>
</g>
</svg>
