<?xml version="1.0" standalone="no"?>
<!DOCTYPE svg PUBLIC "-//W3C//DTD SVG 20010904//EN"
 "http://www.w3.org/TR/2001/REC-SVG-20010904/DTD/svg10.dtd">
<svg version="1.0" xmlns="http://www.w3.org/2000/svg"
 width="2084.000000pt" height="2084.000000pt" viewBox="0 0 2084.000000 2084.000000"
 preserveAspectRatio="xMidYMid meet">
<metadata>
Created by potrace 1.11, written by Peter Selinger 2001-2013
</metadata>
<g transform="translate(0.000000,2084.000000) scale(0.100000,-0.100000)"
fill="#000000" stroke="none">
<path d="M12106 20583 c45 -201 112 -351 203 -455 30 -34 30 -36 12 -52 -17
-16 -21 -15 -66 1 -38 14 -51 25 -58 48 -11 31 -33 54 -54 55 -15 0 -17 -36
-3 -45 6 -3 10 -15 10 -25 0 -10 15 -29 33 -41 17 -13 34 -26 37 -29 3 -3 21
-17 40 -30 19 -13 48 -35 63 -49 19 -18 43 -27 79 -31 l50 -5 -38 -40 c-20
-22 -48 -64 -61 -94 -27 -61 -21 -73 32 -64 30 5 35 1 64 -41 30 -44 32 -49
20 -84 -21 -68 -41 -103 -55 -98 -21 8 -29 -13 -36 -98 -3 -45 16 -60 32 -24
5 13 25 44 44 71 l35 48 -2 -33 c0 -18 2 -66 7 -105 6 -63 5 -73 -8 -73 -18 0
-20 -35 -8 -104 10 -58 27 -54 45 11 16 59 20 78 33 168 3 28 20 90 36 138 23
71 27 95 19 117 -8 25 -6 32 25 59 19 17 34 41 34 53 0 25 -76 100 -120 118
-17 7 -30 18 -30 24 0 6 16 31 35 55 19 24 35 49 35 56 0 9 11 8 45 -4 44 -15
47 -15 88 7 71 38 118 85 123 126 2 20 2 36 -1 36 -19 0 -56 -36 -65 -63 -8
-26 -19 -35 -58 -48 -44 -15 -49 -14 -88 4 -40 19 -41 20 -23 38 11 11 19 28
19 39 0 10 16 34 35 53 29 29 34 39 29 64 -3 16 -14 36 -24 43 -16 12 -17 16
-3 48 18 42 42 167 38 190 -2 9 -4 29 -4 45 -2 49 -19 29 -57 -68 -20 -52 -41
-95 -46 -95 -4 0 -8 3 -8 8 0 12 -63 13 -92 1 -30 -12 -47 -64 -31 -94 7 -11
5 -28 -6 -50 -19 -40 -34 -44 -48 -12 -32 68 -247 322 -296 348 -15 9 -17 7
-11 -18z"/>
<path d="M12434 20286 c-10 -8 -16 -17 -13 -20 3 -4 17 2 30 13 27 23 13 28
-17 7z"/>
<path d="M813 20052 c-25 -2 -33 -8 -33 -23 0 -18 11 -19 405 -19 398 0 405 0
405 20 0 19 -7 20 -102 21 -57 0 -224 1 -373 2 -148 1 -285 1 -302 -1z"/>
<path d="M1783 20052 c-14 -2 -21 -10 -20 -23 1 -16 9 -19 47 -19 38 0 46 3
47 19 2 20 -29 29 -74 23z"/>
<path d="M1653 20030 c-1 -15 4 -20 23 -20 17 0 24 5 24 20 0 14 -7 20 -23 20
-16 0 -23 -6 -24 -20z"/>
<path d="M7325 19920 c-15 -3 -30 -11 -33 -17 -3 -10 181 -13 897 -13 794 0
901 2 901 15 0 8 -3 15 -7 16 -35 4 -1736 3 -1758 -1z"/>
<path d="M9402 19920 c-4 -3 -8 -11 -9 -17 -2 -9 12 -13 47 -13 40 0 48 3 44
15 -4 8 -9 15 -13 16 -32 4 -63 4 -69 -1z"/>
<path d="M9610 19908 c0 -16 11 -18 85 -18 74 0 85 2 85 18 0 15 -11 17 -85
17 -74 0 -85 -2 -85 -17z"/>
<path d="M9920 19922 c-6 -2 -10 -10 -10 -18 0 -12 115 -14 790 -14 696 0 790
2 790 15 0 8 -6 15 -12 16 -41 3 -1550 3 -1558 1z"/>
<path d="M11648 19922 c-10 -2 -18 -10 -18 -18 0 -10 12 -14 43 -14 32 0 44 4
44 15 0 8 -5 15 -11 16 -6 0 -18 2 -26 3 -8 1 -23 1 -32 -2z"/>
<path d="M11844 19921 c-2 -2 -4 -10 -4 -18 0 -10 22 -13 90 -13 83 0 107 8
79 26 -12 7 -158 12 -165 5z"/>
<path d="M6994 19768 c-16 -26 65 -38 86 -13 7 8 11 15 9 16 -23 5 -91 3 -95
-3z"/>
<path d="M7214 19771 c-2 -2 -4 -10 -4 -17 0 -8 24 -12 85 -12 73 1 85 3 83
17 -3 13 -18 16 -81 16 -43 0 -80 -1 -83 -4z"/>
<path d="M7510 19759 c0 -15 68 -16 790 -16 718 0 790 1 790 16 0 15 -72 16
-790 16 -722 0 -790 -1 -790 -16z"/>
<path d="M9230 19758 c0 -15 8 -18 44 -18 37 0 43 3 39 18 -6 26 -83 26 -83 0z"/>
<path d="M9449 19775 c0 0 -2 -8 -4 -17 -3 -16 6 -17 83 -15 58 1 87 6 90 15
2 6 -2 13 -10 13 -13 1 -157 5 -159 4z"/>
<path d="M9699 19775 c0 0 -2 -7 -4 -16 -3 -15 75 -16 896 -16 815 0 899 2
899 16 0 15 -84 16 -895 16 -492 0 -895 0 -896 0z"/>
<path d="M3562 19223 c-18 -7 -42 -57 -42 -88 0 -16 12 -39 30 -57 27 -26 36
-30 68 -25 44 7 82 47 82 85 0 27 -22 69 -44 84 -12 9 -74 9 -94 1z m83 -57
c31 -47 -26 -95 -66 -55 -23 23 -24 37 -2 61 22 25 50 23 68 -6z"/>
<path d="M10187 19054 c-1 -1 -81 -5 -177 -8 -96 -4 -188 -9 -204 -11 -15 -2
-72 -6 -126 -10 -54 -3 -106 -7 -116 -9 -11 -2 -53 -7 -94 -10 -109 -10 -166
-17 -360 -46 -41 -6 -88 -12 -105 -15 -55 -7 -110 -16 -125 -20 -8 -3 -33 -7
-55 -10 -50 -8 -277 -52 -330 -65 -54 -12 -266 -61 -285 -65 -24 -5 -307 -84
-400 -111 -327 -98 -826 -285 -1120 -421 -222 -102 -632 -312 -638 -325 -2 -5
-8 -8 -13 -8 -8 0 -70 -33 -184 -100 -16 -10 -64 -38 -105 -63 -41 -25 -95
-58 -120 -73 -81 -50 -360 -236 -450 -302 -25 -18 -56 -41 -69 -50 -13 -9 -91
-68 -173 -131 -136 -102 -178 -135 -212 -166 -6 -6 -31 -26 -56 -45 -25 -19
-47 -37 -50 -40 -3 -4 -57 -51 -120 -105 -171 -147 -213 -187 -480 -455 -454
-454 -777 -850 -1144 -1401 -57 -86 -112 -169 -120 -185 -9 -16 -24 -41 -34
-56 -136 -214 -366 -641 -482 -893 -17 -38 -42 -92 -55 -120 -21 -46 -54 -121
-75 -170 -4 -11 -15 -36 -24 -56 -8 -20 -36 -89 -61 -155 -25 -65 -54 -139
-65 -164 -48 -117 -232 -691 -255 -793 -2 -12 -9 -40 -15 -62 -6 -22 -17 -65
-24 -95 -7 -30 -18 -73 -24 -95 -11 -40 -47 -198 -56 -245 -2 -14 -7 -36 -10
-50 -3 -14 -8 -38 -11 -55 -3 -16 -14 -77 -25 -135 -10 -58 -22 -121 -25 -140
-3 -19 -7 -46 -10 -60 -2 -14 -7 -45 -10 -70 -3 -25 -8 -52 -10 -60 -2 -8 -7
-40 -10 -70 -3 -30 -7 -66 -10 -80 -2 -14 -7 -50 -10 -80 -3 -30 -8 -71 -10
-90 -7 -63 -17 -176 -30 -330 -27 -344 -27 -1630 0 -1920 2 -19 6 -76 9 -125
4 -50 9 -104 11 -120 2 -17 6 -59 9 -95 4 -36 9 -82 11 -102 3 -21 7 -57 10
-80 3 -24 8 -54 10 -68 2 -14 7 -47 10 -75 3 -27 14 -99 25 -160 10 -60 21
-126 24 -145 14 -94 114 -556 141 -650 2 -8 15 -60 30 -115 14 -55 30 -111 34
-125 5 -14 19 -59 31 -100 61 -207 225 -678 283 -812 8 -18 47 -109 87 -203
380 -882 897 -1682 1590 -2460 151 -169 420 -436 660 -655 80 -72 280 -242
432 -366 60 -48 312 -234 413 -305 917 -643 1934 -1107 3012 -1373 164 -41
474 -107 563 -120 19 -3 71 -12 115 -20 44 -8 100 -18 125 -21 93 -12 136 -18
155 -21 29 -6 260 -33 325 -38 30 -3 84 -8 120 -11 36 -3 88 -7 115 -10 285
-24 1131 -25 1285 -1 14 2 66 7 115 11 84 5 338 31 395 40 38 5 100 14 150 21
217 28 632 109 894 175 374 93 637 176 1056 332 370 138 881 382 1265 605 212
123 593 366 695 444 14 11 99 74 190 141 271 201 464 361 764 637 78 71 334
327 436 435 141 150 338 379 466 540 17 22 51 65 75 95 142 177 394 540 545
785 370 598 677 1260 897 1930 54 164 161 533 171 586 2 14 11 53 20 85 22 82
83 357 95 429 5 33 19 107 29 165 11 58 23 125 26 150 3 25 8 56 11 70 11 67
41 317 50 419 2 20 6 65 9 101 26 264 31 441 31 1125 0 593 -7 935 -20 1016
-2 13 -6 62 -10 109 -3 47 -8 99 -10 115 -2 17 -7 57 -10 90 -3 33 -8 74 -10
90 -2 17 -7 53 -10 80 -11 88 -14 109 -30 210 -9 55 -20 128 -25 163 -6 34
-15 83 -21 110 -6 26 -12 61 -14 77 -9 59 -75 354 -117 515 -202 785 -531
1591 -923 2260 -37 63 -76 131 -87 150 -11 19 -33 54 -49 78 -16 24 -29 45
-29 48 0 10 -275 417 -350 519 -74 99 -279 365 -289 375 -4 3 -24 28 -46 55
-52 66 -62 76 -201 235 -398 453 -895 912 -1359 1255 -66 48 -136 100 -155
115 -67 51 -346 237 -490 327 -615 384 -1281 694 -1970 918 -155 50 -417 127
-474 140 -12 2 -75 18 -141 35 -124 32 -277 67 -330 76 -16 2 -48 8 -70 13
-73 17 -231 45 -370 67 -16 2 -41 6 -55 9 -52 9 -215 30 -392 50 -284 32 -563
46 -931 49 -142 1 -259 1 -260 0z"/>
<path d="M17533 18174 c-2 -7 -3 -17 0 -21 4 -6 872 -10 910 -4 4 0 7 10 7 21
0 20 -7 20 -456 19 -369 -1 -457 -4 -461 -15z"/>
<path d="M17051 18166 c-9 -11 -6 -20 13 -42 l25 -29 -26 -27 c-23 -24 -24
-28 -11 -42 14 -13 18 -12 38 10 29 30 33 30 64 -1 21 -21 26 -22 36 -10 10
12 9 20 -4 40 -9 14 -22 25 -28 25 -7 0 2 15 19 33 28 28 30 34 16 46 -12 11
-19 9 -42 -13 l-28 -27 -24 25 c-28 30 -33 31 -48 12z"/>
<path d="M17380 18061 c0 -22 26 -35 37 -18 15 24 11 37 -13 37 -17 0 -24 -6
-24 -19z"/>
<path d="M17488 18068 c-9 -24 2 -33 36 -32 41 2 56 10 56 30 0 18 -86 20 -92
2z"/>
<path d="M17640 18071 c0 -36 1 -36 398 -35 214 0 394 4 400 8 7 4 12 14 12
22 0 12 -59 14 -405 14 -239 0 -405 -4 -405 -9z"/>
<path d="M18515 18071 c-3 -5 2 -17 12 -26 16 -16 17 -16 30 0 7 10 10 22 7
26 -7 12 -41 11 -49 0z"/>
<path d="M18624 18060 c0 -20 6 -22 46 -22 42 0 48 3 46 20 -2 13 -14 18 -47
20 -39 3 -45 0 -45 -18z"/>
<path d="M111 17706 c-13 -13 -24 -40 -26 -60 -3 -29 2 -42 27 -67 25 -25 37
-29 65 -26 78 11 112 99 58 152 -33 34 -93 34 -124 1z m101 -40 c13 -31 5 -54
-24 -65 -45 -16 -79 26 -53 65 21 32 62 32 77 0z"/>
<path d="M2402 17494 l-2 -22 460 -1 c466 0 476 1 452 34 -5 7 -159 11 -458
10 l-450 0 -2 -21z"/>
<path d="M1920 17495 c-11 -13 -9 -20 13 -43 l27 -28 -27 -26 c-22 -23 -24
-29 -14 -42 12 -14 17 -13 44 10 l30 25 27 -26 c24 -23 28 -24 40 -10 11 13 9
20 -13 43 l-27 28 29 25 c27 22 28 25 13 42 -15 17 -17 16 -44 -10 l-28 -27
-28 28 c-26 24 -30 25 -42 11z"/>
<path d="M549 17438 c-1 -2 -2 -22 -4 -45 -1 -38 1 -43 20 -43 20 0 22 5 22
45 0 37 -3 45 -18 45 -11 0 -20 -1 -20 -2z"/>
<path d="M2516 17402 c-3 -3 -6 -12 -6 -21 0 -15 41 -16 405 -16 405 0 405 0
405 21 0 21 0 21 -399 22 -220 0 -402 -2 -405 -6z"/>
<path d="M3390 17387 c0 -16 6 -23 20 -24 15 -1 20 4 20 23 0 17 -5 24 -20 24
-14 0 -20 -7 -20 -23z"/>
<path d="M3495 17393 c-7 -21 -2 -25 36 -28 43 -4 58 3 55 23 -4 23 -82 27
-91 5z"/>
<path d="M546 17274 c-8 -21 1 -34 25 -34 23 0 26 35 3 44 -21 8 -21 8 -28
-10z"/>
<path d="M20588 15900 c-58 -58 -20 -149 63 -150 84 0 122 112 53 157 -43 28
-83 25 -116 -7z m108 -52 c7 -22 -21 -58 -45 -58 -45 1 -65 59 -29 84 25 18
64 3 74 -26z"/>
<path d="M20417 13474 c-22 -29 -38 -30 -55 -4 -14 23 -47 27 -55 7 -3 -7 6
-23 19 -36 30 -29 30 -32 -1 -61 -23 -21 -23 -24 -7 -36 14 -11 21 -9 43 12
l27 25 27 -27 c26 -26 28 -26 41 -10 11 16 9 22 -11 44 l-25 26 25 26 c30 31
30 36 8 49 -14 7 -22 3 -36 -15z"/>
<path d="M2 13346 c3 -21 4 -21 283 -22 154 0 286 2 293 4 6 2 12 12 12 22 0
16 -20 17 -296 18 l-295 0 3 -22z"/>
<path d="M0 13240 c0 -11 3 -20 8 -21 10 -1 490 -1 540 0 35 1 42 4 42 21 0
20 -7 20 -295 20 -288 0 -295 0 -295 -20z"/>
<path d="M657 13240 c-4 -16 0 -20 23 -20 23 0 27 4 23 20 -3 11 -13 20 -23
20 -10 0 -20 -9 -23 -20z"/>
<path d="M764 13240 c0 -20 6 -22 46 -22 42 0 48 3 46 20 -2 13 -14 18 -47 20
-39 3 -45 0 -45 -18z"/>
<path d="M20093 13119 c-9 -3 -17 -13 -19 -22 -2 -16 28 -17 382 -17 377 0
384 0 384 20 0 11 -3 20 -7 21 -39 4 -728 3 -740 -2z"/>
<path d="M19927 13013 c-15 -14 -6 -39 14 -40 24 -2 38 25 18 38 -17 11 -24
11 -32 2z"/>
<path d="M20030 12994 c0 -22 4 -24 46 -24 41 0 45 2 42 22 -2 19 -10 23 -45
24 -39 1 -43 -1 -43 -22z"/>
<path d="M20189 13015 c0 0 -2 -10 -4 -21 l-4 -22 330 0 330 0 -3 22 c-3 21
-5 21 -325 21 -178 0 -323 0 -324 0z"/>
</g>
</svg>
